<svg width="72" height="68" viewBox="0 0 72 68" fill="none" xmlns="http://www.w3.org/2000/svg">
<rect width="72" height="68" rx="12" fill="#FF9E0C"/>
<path fill-rule="evenodd" clip-rule="evenodd" d="M37.5215 46.9506H22.2176C22.1369 46.9506 22.0592 46.9186 22.0029 46.8623C21.945 46.8044 21.913 46.7267 21.913 46.646V44.438C21.913 43.1741 22.816 42.0594 24.2078 41.1107C26.693 39.4159 30.7147 38.3469 35.2373 38.3469C35.8677 38.3469 36.3794 37.8353 36.3794 37.2048C36.3794 36.5744 35.8677 36.0627 35.2373 36.0627C30.1786 36.0627 25.7002 37.3282 22.9196 39.224C20.7983 40.6707 19.6288 42.5087 19.6288 44.438V46.646C19.6288 47.3328 19.9014 47.9922 20.3872 48.4764C20.873 48.9622 21.5308 49.2348 22.2176 49.2348H37.5215C38.1519 49.2348 38.6635 48.7231 38.6635 48.0927C38.6635 47.4622 38.1519 46.9506 37.5215 46.9506Z" fill="white"/>
<path fill-rule="evenodd" clip-rule="evenodd" d="M35.2385 18C30.6153 18 26.8632 21.7521 26.8632 26.3753C26.8632 30.9969 30.6153 34.7505 35.2385 34.7505C39.8616 34.7505 43.6138 30.9969 43.6138 26.3753C43.6138 21.7521 39.8616 18 35.2385 18ZM35.2385 20.2842C38.6008 20.2842 41.3296 23.013 41.3296 26.3753C41.3296 29.736 38.6008 32.4664 35.2385 32.4664C31.8762 32.4664 29.1474 29.736 29.1474 26.3753C29.1474 23.013 31.8762 20.2842 35.2385 20.2842Z" fill="white"/>
<path fill-rule="evenodd" clip-rule="evenodd" d="M43.5653 49.6649C43.7785 49.878 44.0694 49.9983 44.3724 49.9983C44.6754 49.9983 44.9663 49.878 45.1795 49.6649L50.8579 43.9864C52.8695 41.9748 52.8695 38.707 50.8579 36.6938C49.096 34.9335 46.3733 34.7127 44.3724 36.0345C42.3715 34.7127 39.6487 34.9335 37.8869 36.6938C35.8829 38.6993 35.8753 41.9489 37.864 43.9636L43.5653 49.6649ZM44.3724 47.2421L39.4873 42.357C38.3818 41.2348 38.3864 39.4257 39.5026 38.3095C40.6233 37.1887 42.4446 37.1887 43.5653 38.3095C44.0115 38.7557 44.7333 38.7557 45.1795 38.3095C46.3017 37.1887 48.1215 37.1887 49.2422 38.3095C50.363 39.4303 50.363 41.25 49.2422 42.3723L44.3724 47.2421Z" fill="white"/>
</svg>
