<svg width="156" height="24" viewBox="0 0 156 24" fill="none" xmlns="http://www.w3.org/2000/svg">
<path d="M23.9921 12.0004C23.9921 18.0612 19.5008 23.0717 13.6663 23.8848C13.1208 23.9605 12.5626 24 11.996 24C11.3421 24 10.6999 23.9479 10.0745 23.847C4.36266 22.9271 0 17.9729 0 12.0004C0 5.37294 5.37136 0 11.9969 0C18.6224 0 23.9938 5.37294 23.9938 12.0004H23.9921Z" fill="black"/>
<path d="M13.6661 9.63613V12.2503H16.899L16.387 15.7717H13.6661V23.8849C13.1205 23.9606 12.5624 24.0001 11.9958 24.0001C11.3418 24.0001 10.6996 23.948 10.0742 23.8471V15.7717H7.09265V12.2503H10.0742V9.05175C10.0742 7.06737 11.6823 5.45801 13.6669 5.45801V5.45969C13.6728 5.45969 13.6778 5.45801 13.6837 5.45801H16.8998V8.50352H14.7983C14.1738 8.50352 13.6669 9.01055 13.6669 9.63529L13.6661 9.63613Z" fill="white"/>
<path d="M56.0176 0H55.9629C49.3525 0 43.9938 5.36035 43.9938 11.9727V12.0273C43.9938 18.6397 49.3525 24 55.9629 24H56.0176C62.6279 24 67.9867 18.6397 67.9867 12.0273V11.9727C67.9867 5.36035 62.6279 0 56.0176 0Z" fill="black"/>
<path d="M59.7018 4.88281H52.2777C50.2267 4.88281 48.5581 6.55187 48.5581 8.60351V15.3975C48.5581 17.4491 50.2267 19.1182 52.2777 19.1182H59.7018C61.7528 19.1182 63.4214 17.4491 63.4214 15.3975V8.60351C63.4214 6.55187 61.7528 4.88281 59.7018 4.88281ZM49.8703 8.60351C49.8703 7.27583 50.9504 6.19536 52.2777 6.19536H59.7018C61.0291 6.19536 62.1092 7.27583 62.1092 8.60351V15.3975C62.1092 16.7252 61.0291 17.8056 59.7018 17.8056H52.2777C50.9504 17.8056 49.8703 16.7252 49.8703 15.3975V8.60351Z" fill="white"/>
<path d="M55.9897 15.4603C57.8969 15.4603 59.4495 13.9082 59.4495 11.9995C59.4495 10.0908 57.8978 8.53857 55.9897 8.53857C54.0815 8.53857 52.5298 10.0908 52.5298 11.9995C52.5298 13.9082 54.0815 15.4603 55.9897 15.4603ZM55.9897 9.85196C57.174 9.85196 58.1374 10.8156 58.1374 12.0003C58.1374 13.185 57.174 14.1486 55.9897 14.1486C54.8053 14.1486 53.8419 13.185 53.8419 12.0003C53.8419 10.8156 54.8053 9.85196 55.9897 9.85196Z" fill="white"/>
<path d="M59.7699 9.09789C60.2835 9.09789 60.7021 8.67999 60.7021 8.1654C60.7021 7.65081 60.2843 7.23291 59.7699 7.23291C59.2554 7.23291 58.8376 7.65081 58.8376 8.1654C58.8376 8.67999 59.2554 9.09789 59.7699 9.09789Z" fill="white"/>
<path d="M111.979 12.0004C111.979 18.0612 107.488 23.0717 101.653 23.8848C101.107 23.9605 100.549 24 99.9827 24C99.3288 24 98.6866 23.9479 98.0612 23.847C92.3493 22.9271 87.9867 17.9729 87.9867 12.0004C87.9867 5.37294 93.3581 0 99.9836 0C106.609 0 111.98 5.37294 111.98 12.0004H111.979Z" fill="black"/>
<path d="M92.8514 5.29297L98.3841 12.6923L92.8169 18.7085H94.0702L98.9448 13.4415L102.883 18.7085H107.147L101.303 10.8929L106.486 5.29297H105.232L100.744 10.1438L97.1165 5.29297H92.8522H92.8514ZM94.6939 6.21621H96.6525L105.303 17.7853H103.344L94.6939 6.21621Z" fill="white"/>
<path d="M155.973 12C155.973 5.37258 150.602 0 143.977 0C137.351 0 131.98 5.37258 131.98 12C131.98 18.6274 137.351 24 143.977 24C150.602 24 155.973 18.6274 155.973 12Z" fill="black"/>
<path d="M151.531 9.5134C151.437 8.60187 151.234 7.59422 150.486 7.06467C149.907 6.65402 149.145 6.63883 148.435 6.63968C146.933 6.63968 145.43 6.64221 143.927 6.64305C142.483 6.64474 141.038 6.64558 139.593 6.64727C138.989 6.64727 138.402 6.60089 137.842 6.86229C137.361 7.08659 136.984 7.51327 136.757 7.98801C136.443 8.64825 136.377 9.3962 136.339 10.1264C136.269 11.4562 136.276 12.7894 136.36 14.1183C136.421 15.088 136.577 16.1597 137.327 16.7778C137.991 17.3251 138.929 17.3521 139.79 17.3529C142.525 17.3554 145.26 17.358 147.996 17.3597C148.346 17.3605 148.712 17.3538 149.07 17.315C149.773 17.2391 150.443 17.0375 150.895 16.5164C151.351 15.9911 151.468 15.26 151.537 14.5677C151.706 12.888 151.704 11.1923 151.531 9.5134ZM142.346 14.3544V9.64495L146.423 11.9992L142.346 14.3544Z" fill="white"/>
</svg>
