<svg width="174" height="50" viewBox="0 0 174 50" fill="none" xmlns="http://www.w3.org/2000/svg">
<path d="M172.115 44.2337C172.115 46.8982 169.912 49.0566 167.187 49.0566H5.89658C3.17261 49.0566 0.961548 46.8982 0.961548 44.2337V5.77256C0.961548 3.10926 3.17261 0.943359 5.89658 0.943359H167.186C169.912 0.943359 172.114 3.10926 172.114 5.77256L172.115 44.2337Z" fill="black"/>
<path d="M166.667 1.00156C169.635 1.00156 172.05 3.35625 172.05 6.25V43.75C172.05 46.6438 169.635 48.9984 166.667 48.9984H6.41026C3.44231 48.9984 1.02724 46.6438 1.02724 43.75V6.25C1.02724 3.35625 3.44231 1.00156 6.41026 1.00156H166.667ZM166.667 3.8147e-06H6.41026C2.88622 3.8147e-06 0 2.81407 0 6.25V43.75C0 47.1859 2.88622 50 6.41026 50H166.667C170.191 50 173.077 47.1859 173.077 43.75V6.25C173.077 2.81407 170.191 3.8147e-06 166.667 3.8147e-06Z" fill="#A6A6A6"/>
<path d="M38.6257 24.7302C38.5885 20.7015 42.009 18.7415 42.1654 18.6502C40.2282 15.8965 37.2257 15.5202 36.1705 15.4902C33.6487 15.2315 31.2026 16.9615 29.918 16.9615C28.6077 16.9615 26.6295 15.5152 24.4975 15.5577C21.7539 15.599 19.1872 17.1477 17.7795 19.5527C14.8744 24.4565 17.0411 31.6627 19.8244 35.6265C21.2167 37.5677 22.8436 39.7352 24.9731 39.659C27.0564 39.5752 27.8346 38.364 30.3487 38.364C32.8398 38.364 33.5705 39.659 35.7423 39.6102C37.9782 39.5752 39.3859 37.6602 40.7295 35.7015C42.3385 33.4765 42.9846 31.2852 43.0103 31.1727C42.9577 31.1552 38.668 29.559 38.6257 24.7302Z" fill="white"/>
<path d="M34.5231 12.8827C35.6436 11.5165 36.4103 9.65773 36.1975 7.77148C34.5757 7.84148 32.5475 8.86523 31.3795 10.2015C30.3462 11.379 29.4231 13.309 29.6616 15.124C31.4834 15.2565 33.3539 14.2277 34.5231 12.8827Z" fill="white"/>
<path d="M62.8846 12.5109C62.8846 13.9821 62.4321 15.0896 61.5282 15.8334C60.691 16.5196 59.5013 16.8634 57.9603 16.8634C57.1962 16.8634 56.5423 16.8309 55.9949 16.7659V8.72713C56.709 8.61463 57.4782 8.55713 58.309 8.55713C59.7769 8.55713 60.8833 8.86838 61.6295 9.49088C62.4654 10.1946 62.8846 11.2009 62.8846 12.5109ZM61.468 12.5471C61.468 11.5934 61.209 10.8621 60.691 10.3521C60.1731 9.84338 59.4167 9.58838 58.4205 9.58838C57.9974 9.58838 57.6372 9.61588 57.3385 9.67338V15.7846C57.5038 15.8096 57.8064 15.8209 58.2462 15.8209C59.2744 15.8209 60.068 15.5421 60.6269 14.9846C61.1859 14.4271 61.468 13.6146 61.468 12.5471Z" fill="white"/>
<path d="M70.3962 13.7963C70.3962 14.7026 70.1308 15.4451 69.6 16.0276C69.0436 16.6263 68.3064 16.9251 67.3859 16.9251C66.4987 16.9251 65.7923 16.6388 65.2654 16.0638C64.7398 15.4901 64.4769 14.7663 64.4769 13.8938C64.4769 12.9813 64.7474 12.2326 65.291 11.6513C65.8346 11.0701 66.5654 10.7788 67.4859 10.7788C68.3731 10.7788 69.0859 11.0651 69.6256 11.6388C70.1385 12.1963 70.3962 12.9163 70.3962 13.7963ZM69.0026 13.8388C69.0026 13.2951 68.8821 12.8288 68.6423 12.4401C68.3603 11.9701 67.959 11.7351 67.4372 11.7351C66.8974 11.7351 66.4872 11.9701 66.2051 12.4401C65.9641 12.8288 65.8449 13.3026 65.8449 13.8626C65.8449 14.4063 65.9654 14.8726 66.2051 15.2613C66.4962 15.7313 66.9013 15.9663 67.4244 15.9663C67.9372 15.9663 68.3397 15.7276 68.6295 15.2488C68.8782 14.8526 69.0026 14.3826 69.0026 13.8388Z" fill="white"/>
<path d="M80.4679 10.8984L78.5769 16.7909H77.3462L76.5628 14.2322C76.3641 13.5934 76.2026 12.9584 76.0769 12.3284H76.0526C75.9359 12.9759 75.7744 13.6097 75.5667 14.2322L74.7346 16.7909H73.4897L71.7115 10.8984H73.0923L73.7756 13.6997C73.941 14.3622 74.0769 14.9934 74.1859 15.5909H74.2103C74.3103 15.0984 74.4756 14.4709 74.709 13.7122L75.5667 10.8997H76.6615L77.4833 13.6522C77.6821 14.3234 77.8436 14.9697 77.9679 15.5922H78.0051C78.0962 14.9859 78.2333 14.3397 78.4154 13.6522L79.1487 10.8997H80.4679V10.8984Z" fill="white"/>
<path d="M87.4333 16.7912H86.0897V13.4162C86.0897 12.3762 85.6846 11.8562 84.8717 11.8562C84.473 11.8562 84.1512 11.9987 83.9012 12.2849C83.6538 12.5712 83.5282 12.9087 83.5282 13.2949V16.7899H82.1846V12.5824C82.1846 12.0649 82.1679 11.5037 82.1359 10.8962H83.3166L83.3795 11.8174H83.4166C83.573 11.5312 83.8064 11.2949 84.1128 11.1062C84.4769 10.8862 84.8846 10.7749 85.3307 10.7749C85.8948 10.7749 86.3641 10.9524 86.7371 11.3087C87.2012 11.7449 87.4333 12.3962 87.4333 13.2612V16.7912Z" fill="white"/>
<path d="M91.1384 16.7911H89.7961V8.19482H91.1384V16.7911Z" fill="white"/>
<path d="M99.0488 13.7963C99.0488 14.7026 98.7834 15.4451 98.2526 16.0276C97.6962 16.6263 96.9577 16.9251 96.0385 16.9251C95.15 16.9251 94.4436 16.6388 93.918 16.0638C93.3923 15.4901 93.1295 14.7663 93.1295 13.8938C93.1295 12.9813 93.4 12.2326 93.9436 11.6513C94.4872 11.0701 95.218 10.7788 96.1372 10.7788C97.0257 10.7788 97.7372 11.0651 98.2782 11.6388C98.7911 12.1963 99.0488 12.9163 99.0488 13.7963ZM97.6539 13.8388C97.6539 13.2951 97.5334 12.8288 97.2936 12.4401C97.0129 11.9701 96.6103 11.7351 96.0898 11.7351C95.5487 11.7351 95.1385 11.9701 94.8577 12.4401C94.6167 12.8288 94.4975 13.3026 94.4975 13.8626C94.4975 14.4063 94.618 14.8726 94.8577 15.2613C95.1487 15.7313 95.5539 15.9663 96.077 15.9663C96.5898 15.9663 96.9911 15.7276 97.2808 15.2488C97.5308 14.8526 97.6539 14.3826 97.6539 13.8388Z" fill="white"/>
<path d="M105.551 16.7913H104.345L104.245 16.1126H104.208C103.795 16.6538 103.206 16.9251 102.442 16.9251C101.872 16.9251 101.41 16.7463 101.063 16.3913C100.747 16.0688 100.59 15.6676 100.59 15.1913C100.59 14.4713 100.897 13.9226 101.517 13.5426C102.135 13.1626 103.004 12.9763 104.123 12.9851V12.8751C104.123 12.0988 103.705 11.7113 102.868 11.7113C102.272 11.7113 101.746 11.8576 101.292 12.1476L101.019 11.2876C101.581 10.9488 102.274 10.7788 103.092 10.7788C104.672 10.7788 105.464 11.5913 105.464 13.2163V15.3863C105.464 15.9751 105.494 16.4438 105.551 16.7913ZM104.156 14.7663V13.8576C102.674 13.8326 101.933 14.2288 101.933 15.0451C101.933 15.3526 102.018 15.5826 102.191 15.7363C102.364 15.8901 102.585 15.9663 102.847 15.9663C103.142 15.9663 103.418 15.8751 103.669 15.6938C103.922 15.5113 104.077 15.2801 104.135 14.9963C104.149 14.9326 104.156 14.8551 104.156 14.7663Z" fill="white"/>
<path d="M113.186 16.7911H111.994L111.931 15.8448H111.894C111.513 16.5648 110.864 16.9248 109.953 16.9248C109.224 16.9248 108.618 16.6461 108.137 16.0886C107.656 15.5311 107.417 14.8073 107.417 13.9186C107.417 12.9648 107.677 12.1923 108.2 11.6023C108.706 11.0523 109.327 10.7773 110.065 10.7773C110.877 10.7773 111.445 11.0436 111.768 11.5773H111.794V8.19482H113.138V15.2036C113.138 15.7773 113.154 16.3061 113.186 16.7911ZM111.794 14.3061V13.3236C111.794 13.1536 111.781 13.0161 111.756 12.9111C111.681 12.5961 111.518 12.3311 111.27 12.1173C111.02 11.9036 110.719 11.7961 110.372 11.7961C109.87 11.7961 109.478 11.9898 109.19 12.3786C108.904 12.7673 108.759 13.2636 108.759 13.8698C108.759 14.4523 108.896 14.9248 109.172 15.2886C109.463 15.6761 109.855 15.8698 110.346 15.8698C110.787 15.8698 111.14 15.7086 111.408 15.3848C111.667 15.0861 111.794 14.7261 111.794 14.3061Z" fill="white"/>
<path d="M124.677 13.7963C124.677 14.7026 124.412 15.4451 123.881 16.0276C123.324 16.6263 122.588 16.9251 121.667 16.9251C120.781 16.9251 120.074 16.6388 119.546 16.0638C119.021 15.4901 118.758 14.7663 118.758 13.8938C118.758 12.9813 119.028 12.2326 119.572 11.6513C120.115 11.0701 120.846 10.7788 121.768 10.7788C122.654 10.7788 123.368 11.0651 123.906 11.6388C124.419 12.1963 124.677 12.9163 124.677 13.7963ZM123.285 13.8388C123.285 13.2951 123.164 12.8288 122.924 12.4401C122.641 11.9701 122.241 11.7351 121.718 11.7351C121.179 11.7351 120.769 11.9701 120.486 12.4401C120.245 12.8288 120.126 13.3026 120.126 13.8626C120.126 14.4063 120.246 14.8726 120.486 15.2613C120.777 15.7313 121.182 15.9663 121.705 15.9663C122.218 15.9663 122.622 15.7276 122.912 15.2488C123.159 14.8526 123.285 14.3826 123.285 13.8388Z" fill="white"/>
<path d="M131.901 16.7912H130.559V13.4162C130.559 12.3762 130.154 11.8562 129.34 11.8562C128.941 11.8562 128.619 11.9987 128.37 12.2849C128.122 12.5712 127.997 12.9087 127.997 13.2949V16.7899H126.653V12.5824C126.653 12.0649 126.637 11.5037 126.605 10.8962H127.785L127.847 11.8174H127.885C128.042 11.5312 128.276 11.2949 128.581 11.1062C128.946 10.8862 129.353 10.7749 129.8 10.7749C130.363 10.7749 130.832 10.9524 131.205 11.3087C131.67 11.7449 131.901 12.3962 131.901 13.2612V16.7912Z" fill="white"/>
<path d="M140.944 11.8799H139.464V14.7424C139.464 15.4699 139.727 15.8337 140.247 15.8337C140.488 15.8337 140.688 15.8137 140.846 15.7724L140.881 16.7662C140.615 16.8637 140.267 16.9124 139.837 16.9124C139.306 16.9124 138.894 16.7549 138.595 16.4399C138.295 16.1249 138.146 15.5949 138.146 14.8512V11.8799H137.263V10.8987H138.146V9.81865L139.463 9.43115V10.8974H140.942V11.8799H140.944Z" fill="white"/>
<path d="M148.056 16.7911H146.712V13.4411C146.712 12.3848 146.306 11.8561 145.495 11.8561C144.872 11.8561 144.446 12.1623 144.213 12.7748C144.173 12.9036 144.15 13.0611 144.15 13.2461V16.7898H142.808V8.19482H144.15V11.7461H144.176C144.599 11.0998 145.205 10.7773 145.991 10.7773C146.547 10.7773 147.008 10.9548 147.373 11.3111C147.828 11.7548 148.056 12.4148 148.056 13.2873V16.7911Z" fill="white"/>
<path d="M155.394 13.5658C155.394 13.8008 155.376 13.9983 155.344 14.1596H151.314C151.332 14.7421 151.524 15.1858 151.897 15.4933C152.238 15.7683 152.678 15.9058 153.217 15.9058C153.813 15.9058 154.356 15.8133 154.846 15.6271L155.056 16.5371C154.483 16.7796 153.809 16.9008 153.028 16.9008C152.092 16.9008 151.355 16.6321 150.822 16.0946C150.286 15.5571 150.021 14.8358 150.021 13.9308C150.021 13.0421 150.268 12.3021 150.767 11.7121C151.287 11.0821 151.991 10.7671 152.879 10.7671C153.749 10.7671 154.409 11.0821 154.855 11.7121C155.215 12.2121 155.394 12.8308 155.394 13.5658ZM154.112 13.2271C154.122 12.8383 154.033 12.5033 153.851 12.2208C153.618 11.8571 153.263 11.6746 152.782 11.6746C152.344 11.6746 151.986 11.8521 151.713 12.2083C151.49 12.4921 151.358 12.8308 151.314 13.2271H154.112Z" fill="white"/>
<path d="M68.7757 39.3801H65.8641L64.2693 34.4939H58.7257L57.2064 39.3801H54.3718L59.8641 22.7451H63.2564L68.7757 39.3801ZM63.7885 32.4439L62.3462 28.1001C62.1936 27.6564 61.9077 26.6114 61.4859 24.9664H61.4346C61.2667 25.6739 60.9962 26.7189 60.6244 28.1001L59.2077 32.4439H63.7885Z" fill="white"/>
<path d="M82.9 33.2354C82.9 35.2754 82.3347 36.8879 81.2039 38.0717C80.1911 39.1254 78.9334 39.6517 77.4321 39.6517C75.8116 39.6517 74.6475 39.0842 73.9385 37.9492H73.8872V44.2679H71.1539V31.3342C71.1539 30.0517 71.1193 28.7354 71.0526 27.3854H73.4565L73.609 29.2867H73.6603C74.5718 27.8542 75.9552 27.1392 77.8116 27.1392C79.2629 27.1392 80.4744 27.6979 81.4436 28.8167C82.4154 29.9367 82.9 31.4092 82.9 33.2354ZM80.1154 33.3329C80.1154 32.1654 79.8462 31.2029 79.3052 30.4454C78.7141 29.6554 77.9206 29.2604 76.9257 29.2604C76.2513 29.2604 75.6385 29.4804 75.0911 29.9142C74.5424 30.3517 74.1834 30.9229 74.0154 31.6304C73.9308 31.9604 73.8885 32.2304 73.8885 32.4429V34.4429C73.8885 35.3154 74.1629 36.0517 74.7116 36.6529C75.2603 37.2542 75.9731 37.5542 76.85 37.5542C77.8795 37.5542 78.6808 37.1667 79.2539 36.3942C79.8283 35.6204 80.1154 34.6004 80.1154 33.3329Z" fill="white"/>
<path d="M97.05 33.2354C97.05 35.2754 96.4846 36.8879 95.3526 38.0717C94.341 39.1254 93.0833 39.6517 91.5821 39.6517C89.9615 39.6517 88.7974 39.0842 88.0898 37.9492H88.0385V44.2679H85.3051V31.3342C85.3051 30.0517 85.2705 28.7354 85.2039 27.3854H87.6077L87.7603 29.2867H87.8115C88.7218 27.8542 90.1051 27.1392 91.9628 27.1392C93.4128 27.1392 94.6244 27.6979 95.5962 28.8167C96.5641 29.9367 97.05 31.4092 97.05 33.2354ZM94.2654 33.3329C94.2654 32.1654 93.9949 31.2029 93.4539 30.4454C92.8628 29.6554 92.0718 29.2604 91.0757 29.2604C90.4 29.2604 89.7885 29.4804 89.2398 29.9142C88.691 30.3517 88.3333 30.9229 88.1654 31.6304C88.0821 31.9604 88.0385 32.2304 88.0385 32.4429V34.4429C88.0385 35.3154 88.3128 36.0517 88.859 36.6529C89.4077 37.2529 90.1205 37.5542 91 37.5542C92.0295 37.5542 92.8308 37.1667 93.4039 36.3942C93.9782 35.6204 94.2654 34.6004 94.2654 33.3329Z" fill="white"/>
<path d="M112.871 34.7152C112.871 36.1302 112.367 37.2815 111.355 38.1702C110.244 39.1415 108.696 39.6265 106.708 39.6265C104.872 39.6265 103.4 39.2815 102.286 38.5902L102.919 36.369C104.119 37.0765 105.436 37.4315 106.871 37.4315C107.9 37.4315 108.701 37.204 109.277 36.7515C109.85 36.299 110.136 35.6915 110.136 34.934C110.136 34.259 109.9 33.6902 109.427 33.229C108.956 32.7677 108.171 32.339 107.073 31.9427C104.086 30.8565 102.594 29.2652 102.594 27.1727C102.594 25.8052 103.117 24.684 104.164 23.8115C105.208 22.9377 106.6 22.5015 108.341 22.5015C109.894 22.5015 111.183 22.7652 112.213 23.2915L111.529 25.464C110.568 24.954 109.481 24.699 108.264 24.699C107.303 24.699 106.551 24.9302 106.013 25.3902C105.558 25.8015 105.329 26.3027 105.329 26.8965C105.329 27.554 105.59 28.0977 106.113 28.5252C106.568 28.9202 107.395 29.3477 108.595 29.809C110.063 30.3852 111.141 31.059 111.835 31.8315C112.526 32.6015 112.871 33.5652 112.871 34.7152Z" fill="white"/>
<path d="M121.908 29.3852H118.895V35.209C118.895 36.6902 119.426 37.4302 120.49 37.4302C120.978 37.4302 121.383 37.389 121.704 37.3065L121.779 39.3302C121.241 39.5265 120.532 39.6252 119.654 39.6252C118.574 39.6252 117.731 39.304 117.122 38.6627C116.515 38.0202 116.21 36.9427 116.21 35.429V29.3827H114.415V27.3827H116.21V25.1865L118.895 24.3965V27.3827H121.908V29.3852Z" fill="white"/>
<path d="M135.501 33.2839C135.501 35.1276 134.96 36.6414 133.881 37.8251C132.749 39.0439 131.246 39.6514 129.373 39.6514C127.568 39.6514 126.131 39.0676 125.059 37.9001C123.987 36.7326 123.451 35.2589 123.451 33.4826C123.451 31.6239 124.003 30.1014 125.109 28.9176C126.213 27.7326 127.703 27.1401 129.576 27.1401C131.381 27.1401 132.833 27.7239 133.929 28.8926C134.978 30.0264 135.501 31.4901 135.501 33.2839ZM132.665 33.3701C132.665 32.2639 132.423 31.3151 131.932 30.5239C131.359 29.5664 130.54 29.0889 129.478 29.0889C128.379 29.0889 127.545 29.5676 126.972 30.5239C126.481 31.3164 126.238 32.2801 126.238 33.4201C126.238 34.5264 126.481 35.4751 126.972 36.2651C127.563 37.2226 128.388 37.7001 129.454 37.7001C130.497 37.7001 131.317 37.2126 131.908 36.2401C132.412 35.4339 132.665 34.4751 132.665 33.3701Z" fill="white"/>
<path d="M144.386 29.7292C144.115 29.6804 143.827 29.6554 143.524 29.6554C142.563 29.6554 141.819 30.0092 141.296 30.7179C140.841 31.3429 140.613 32.1329 140.613 33.0867V39.3804H137.881L137.906 31.1629C137.906 29.7804 137.872 28.5217 137.804 27.3867H140.185L140.285 29.6817H140.36C140.649 28.8929 141.104 28.2579 141.727 27.7817C142.336 27.3529 142.994 27.1392 143.703 27.1392C143.955 27.1392 144.183 27.1567 144.386 27.1879V29.7292Z" fill="white"/>
<path d="M156.61 32.8154C156.61 33.2929 156.578 33.6954 156.51 34.0242H148.31C148.342 35.2092 148.738 36.1154 149.5 36.7404C150.191 37.2992 151.085 37.5792 152.182 37.5792C153.396 37.5792 154.504 37.3904 155.5 37.0117L155.928 38.8617C154.764 39.3567 153.39 39.6029 151.804 39.6029C149.896 39.6029 148.399 39.0554 147.309 37.9617C146.222 36.8679 145.677 35.3992 145.677 33.5567C145.677 31.7479 146.183 30.2417 147.197 29.0404C148.259 27.7579 149.694 27.1167 151.499 27.1167C153.272 27.1167 154.614 27.7579 155.526 29.0404C156.247 30.0592 156.61 31.3192 156.61 32.8154ZM154.004 32.1242C154.022 31.3342 153.844 30.6517 153.473 30.0754C153 29.3342 152.273 28.9642 151.295 28.9642C150.401 28.9642 149.674 29.3254 149.119 30.0504C148.664 30.6267 148.394 31.3179 148.31 32.1229H154.004V32.1242Z" fill="white"/>
</svg>
