<svg width="72" height="68" viewBox="0 0 72 68" fill="none" xmlns="http://www.w3.org/2000/svg">
<rect width="72" height="68" rx="12" fill="#FF9E0C"/>
<path d="M40.6875 33.1251C39.25 34.5626 37.875 35.9376 36.4375 37.3751C35.5625 36.5001 34.625 35.5626 33.75 34.6876C32.625 33.5626 30.8125 35.3126 32 36.4376C33.1875 37.6251 34.375 38.8126 35.5625 40.0001C36.0625 40.5001 36.875 40.5001 37.3125 40.0001L42.4375 34.8751C43.625 33.7501 41.875 32.0001 40.6875 33.1251Z" fill="white"/>
<path d="M48.25 19.5C48.25 19.375 48.25 19.25 48.25 19.125C48.25 18.5 47.6875 17.875 47 17.875C46.3125 17.875 45.75 18.4375 45.75 19.125V19.5H30.3125V19.4375C30.3125 19.3125 30.3125 19.1875 30.3125 19.0625C30.3125 18.4375 29.75 17.8125 29.0625 17.8125C28.375 17.8125 27.8125 18.375 27.8125 19.0625V19.5625C24.9375 19.5625 22.5625 21.9375 22.5625 24.8125V29.625C22.5 29.8125 22.4375 29.9375 22.4375 30.125C22.0625 32.8125 21.4375 35.5 20.5625 38.0625C20.125 39.25 19.625 40.5 19.0625 41.625C18.5625 42.6875 18.625 43.875 19.25 44.8125C19.875 45.75 20.875 46.3125 22 46.3125H22.6875C23.25 48.625 25.3125 50.3125 27.8125 50.3125H48.0625C50.9375 50.3125 53.3125 47.9375 53.3125 45.0625V24.75C53.3125 21.875 51.0625 19.625 48.25 19.5ZM27.75 22V22.25C27.75 22.875 28.3125 23.5 29 23.5C29.6875 23.5 30.25 22.9375 30.25 22.25C30.25 22.1875 30.25 22.0625 30.25 22H45.75V22.375C45.75 23 46.3125 23.625 47 23.625C47.6875 23.625 48.25 23.0625 48.25 22.375C48.25 22.25 48.25 22.125 48.25 22C49.6875 22.125 50.8125 23.3125 50.8125 24.75V27.75C50.75 27.75 50.625 27.75 50.5625 27.75H25V24.75C25 23.1875 26.25 22 27.75 22ZM21.3125 43.4375C21.1875 43.1875 21.125 42.9375 21.25 42.6875C21.8125 41.4375 22.375 40.1875 22.8125 38.875C23.75 36.125 24.4375 33.3125 24.8125 30.4375C24.8125 30.375 24.875 30.3125 24.9375 30.3125H50.5C50.5 30.3125 50.5625 30.3125 50.625 30.375C50.625 30.375 50.6875 30.4375 50.6875 30.5C50.375 33.3125 49.75 36.0625 48.875 38.6875C48.4375 40 47.875 41.3125 47.25 42.625C46.875 43.375 46.0625 43.875 45.1875 43.875H22C21.6875 43.75 21.4375 43.625 21.3125 43.4375ZM48.0625 47.75H27.75C26.6875 47.75 25.8125 47.125 25.3125 46.25H45.125C46.9375 46.25 48.625 45.1875 49.4375 43.5625C49.9375 42.5625 50.375 41.5 50.75 40.4375V45C50.8125 46.5 49.5625 47.75 48.0625 47.75Z" fill="white"/>
</svg>
