<svg width="174" height="50" viewBox="0 0 174 50" fill="none" xmlns="http://www.w3.org/2000/svg">
<path d="M166.667 50H6.41026C2.88622 50 0 47.1859 0 43.75V6.25C0 2.81406 2.88622 0 6.41026 0H166.667C170.191 0 173.077 2.81406 173.077 6.25V43.75C173.077 47.1859 170.191 50 166.667 50Z" fill="black"/>
<path d="M166.667 1.00156C169.635 1.00156 172.05 3.35625 172.05 6.25V43.75C172.05 46.6438 169.635 48.9984 166.667 48.9984H6.41026C3.44231 48.9984 1.02724 46.6438 1.02724 43.75V6.25C1.02724 3.35625 3.44231 1.00156 6.41026 1.00156H166.667ZM166.667 0H6.41026C2.88622 0 0 2.81406 0 6.25V43.75C0 47.1859 2.88622 50 6.41026 50H166.667C170.191 50 173.077 47.1859 173.077 43.75V6.25C173.077 2.81406 170.191 0 166.667 0Z" fill="#A6A6A6"/>
<path d="M13.3782 9.42324C13.0016 9.80761 12.7837 10.4061 12.7837 11.1811V38.8248C12.7837 39.5998 13.0016 40.1982 13.3782 40.5826L13.4712 40.667L29.359 25.1826V24.817L13.4712 9.33262L13.3782 9.42324Z" fill="url(#paint0_linear_2001_5715)"/>
<path d="M34.649 30.3467L29.3589 25.1826V24.817L34.6554 19.6529L34.774 19.7201L41.0464 23.1998C42.8365 24.1873 42.8365 25.8123 41.0464 26.8061L34.774 30.2795L34.649 30.3467Z" fill="url(#paint1_linear_2001_5715)"/>
<path d="M34.7741 30.2796L29.359 24.9999L13.3782 40.5827C13.9728 41.1921 14.9423 41.2655 16.0449 40.6562L34.7741 30.2796Z" fill="url(#paint2_linear_2001_5715)"/>
<path d="M34.7741 19.7203L16.0449 9.34376C14.9423 8.74063 13.9728 8.81407 13.3782 9.42344L29.359 25L34.7741 19.7203Z" fill="url(#paint3_linear_2001_5715)"/>
<path d="M60.7916 12.805C60.7916 13.8487 60.4711 14.6847 59.8397 15.3081C59.1137 16.0472 58.1682 16.419 57.0096 16.419C55.9022 16.419 54.9567 16.0409 54.1811 15.2956C53.4038 14.5394 53.016 13.6112 53.016 12.5003C53.016 11.3894 53.4038 10.4612 54.1811 9.71123C54.9567 8.95967 55.9022 8.58154 57.0096 8.58154C57.5609 8.58154 58.0865 8.69248 58.5881 8.89873C59.0881 9.10654 59.4952 9.38779 59.79 9.73467L59.1202 10.394C58.6057 9.80186 57.9054 9.50967 57.0096 9.50967C56.2019 9.50967 55.5016 9.78467 54.907 10.3394C54.3189 10.8956 54.024 11.6159 54.024 12.5003C54.024 13.3847 54.3189 14.1112 54.907 14.6675C55.5016 15.2159 56.2019 15.4972 57.0096 15.4972C57.867 15.4972 58.5881 15.2159 59.157 14.6612C59.532 14.294 59.7452 13.7878 59.8013 13.1409H57.0096V12.2378H60.7339C60.7788 12.4331 60.7916 12.6222 60.7916 12.805Z" fill="white" stroke="white" stroke-width="0.16" stroke-miterlimit="10"/>
<path d="M66.7003 9.67373H63.2019V12.0487H66.3557V12.9519H63.2019V15.3269H66.7003V16.2472H62.2115V8.75342H66.7003V9.67373Z" fill="white" stroke="white" stroke-width="0.16" stroke-miterlimit="10"/>
<path d="M70.8702 16.2472H69.8798V9.67373H67.7339V8.75342H73.0176V9.67373H70.8702V16.2472Z" fill="white" stroke="white" stroke-width="0.16" stroke-miterlimit="10"/>
<path d="M76.8413 16.2472V8.75342H77.8301V16.2472H76.8413Z" fill="white" stroke="white" stroke-width="0.16" stroke-miterlimit="10"/>
<path d="M82.213 16.2472H81.2307V9.67373H79.0768V8.75342H84.3669V9.67373H82.213V16.2472Z" fill="white" stroke="white" stroke-width="0.16" stroke-miterlimit="10"/>
<path d="M94.3702 15.2831C93.6122 16.0409 92.6731 16.419 91.5529 16.419C90.4263 16.419 89.4872 16.0409 88.7291 15.2831C87.9727 14.5269 87.5961 13.5987 87.5961 12.5003C87.5961 11.4019 87.9727 10.4737 88.7291 9.71748C89.4872 8.95967 90.4263 8.58154 91.5529 8.58154C92.6666 8.58154 93.6058 8.95967 94.3638 9.72373C95.1266 10.4862 95.5032 11.4081 95.5032 12.5003C95.5032 13.5987 95.1266 14.5269 94.3702 15.2831ZM89.4615 14.655C90.032 15.2159 90.7259 15.4972 91.5529 15.4972C92.3734 15.4972 93.0737 15.2159 93.6378 14.655C94.2067 14.094 94.4952 13.3737 94.4952 12.5003C94.4952 11.6269 94.2067 10.9065 93.6378 10.3456C93.0737 9.78467 92.3734 9.50342 91.5529 9.50342C90.7259 9.50342 90.032 9.78467 89.4615 10.3456C88.8926 10.9065 88.6041 11.6269 88.6041 12.5003C88.6041 13.3737 88.8926 14.094 89.4615 14.655Z" fill="white" stroke="white" stroke-width="0.16" stroke-miterlimit="10"/>
<path d="M96.8926 16.2472V8.75342H98.0945L101.832 14.5815H101.875L101.832 13.1409V8.75342H102.82V16.2472H101.788L97.8749 10.1315H97.8317L97.8749 11.5784V16.2472H96.8926Z" fill="white" stroke="white" stroke-width="0.16" stroke-miterlimit="10"/>
<path d="M87.3526 27.1904C84.3414 27.1904 81.8814 29.4248 81.8814 32.5076C81.8814 35.5654 84.3414 37.8232 87.3526 37.8232C90.3702 37.8232 92.8302 35.5654 92.8302 32.5076C92.8302 29.4248 90.3702 27.1904 87.3526 27.1904ZM87.3526 35.7295C85.7003 35.7295 84.2789 34.3998 84.2789 32.5076C84.2789 30.5904 85.7003 29.2842 87.3526 29.2842C89.0048 29.2842 90.4327 30.5904 90.4327 32.5076C90.4327 34.3998 89.0048 35.7295 87.3526 35.7295ZM75.4151 27.1904C72.3975 27.1904 69.9439 29.4248 69.9439 32.5076C69.9439 35.5654 72.3975 37.8232 75.4151 37.8232C78.4311 37.8232 80.8862 35.5654 80.8862 32.5076C80.8862 29.4248 78.4311 27.1904 75.4151 27.1904ZM75.4151 35.7295C73.7612 35.7295 72.335 34.3998 72.335 32.5076C72.335 30.5904 73.7612 29.2842 75.4151 29.2842C77.0673 29.2842 78.4888 30.5904 78.4888 32.5076C78.4888 34.3998 77.0673 35.7295 75.4151 35.7295ZM61.21 28.8201V31.0795H66.7436C66.5818 32.342 66.1491 33.2701 65.4856 33.917C64.6779 34.6982 63.4199 35.5654 61.21 35.5654C57.8045 35.5654 55.1378 32.8857 55.1378 29.5654C55.1378 26.2451 57.8045 23.5654 61.21 23.5654C63.0513 23.5654 64.3911 24.267 65.3798 25.1764L67.0129 23.5842C65.6298 22.2967 63.7901 21.3076 61.21 21.3076C56.5401 21.3076 52.6154 25.0123 52.6154 29.5654C52.6154 34.1186 56.5401 37.8232 61.21 37.8232C63.734 37.8232 65.6298 37.017 67.1202 35.5045C68.6475 34.0154 69.1234 31.9217 69.1234 30.2311C69.1234 29.7061 69.0786 29.2232 68.9984 28.8201H61.21ZM119.296 30.5717C118.846 29.3826 117.457 27.1904 114.627 27.1904C111.822 27.1904 109.487 29.3451 109.487 32.5076C109.487 35.4857 111.798 37.8232 114.896 37.8232C117.401 37.8232 118.846 36.3342 119.441 35.467L117.582 34.2592C116.962 35.1436 116.117 35.7295 114.896 35.7295C113.683 35.7295 112.813 35.1873 112.255 34.1186L119.548 31.1764L119.296 30.5717ZM111.861 32.342C111.798 30.292 113.494 29.242 114.708 29.242C115.66 29.242 116.468 29.7061 116.737 30.3701L111.861 32.342ZM105.933 37.4998H108.33V21.8748H105.933V37.4998ZM102.006 28.3748H101.926C101.388 27.7529 100.361 27.1904 99.0593 27.1904C96.3285 27.1904 93.8318 29.5279 93.8318 32.5248C93.8318 35.5045 96.3285 37.8232 99.0593 37.8232C100.361 37.8232 101.388 37.2561 101.926 36.6154H102.006V37.3779C102.006 39.4107 100.893 40.5029 99.0962 40.5029C97.6314 40.5029 96.7228 39.4717 96.3478 38.6045L94.2628 39.4529C94.8638 40.8623 96.4551 42.5967 99.0962 42.5967C101.907 42.5967 104.279 40.9842 104.279 37.0607V27.5139H102.006V28.3748ZM99.2644 35.7295C97.6122 35.7295 96.2292 34.3811 96.2292 32.5248C96.2292 30.6514 97.6122 29.2842 99.2644 29.2842C100.893 29.2842 102.176 30.6514 102.176 32.5248C102.176 34.3811 100.893 35.7295 99.2644 35.7295ZM130.521 21.8748H124.787V37.4998H127.178V31.5795H130.521C133.176 31.5795 135.78 29.7061 135.78 26.7264C135.78 23.7482 133.17 21.8748 130.521 21.8748ZM130.583 29.4061H127.178V24.0482H130.583C132.369 24.0482 133.388 25.4936 133.388 26.7264C133.388 27.9357 132.369 29.4061 130.583 29.4061ZM145.364 27.1607C143.636 27.1607 141.84 27.9045 141.101 29.5529L143.223 30.4201C143.679 29.5529 144.519 29.2717 145.407 29.2717C146.647 29.2717 147.905 29.9982 147.925 31.2811V31.4451C147.492 31.2014 146.566 30.8404 145.426 30.8404C143.141 30.8404 140.812 32.067 140.812 34.3561C140.812 36.4498 142.684 37.7982 144.788 37.7982C146.397 37.7982 147.285 37.0904 147.843 36.267H147.925V37.4748H150.234V31.4811C150.234 28.7107 148.112 27.1607 145.364 27.1607ZM145.075 35.7232C144.293 35.7232 143.204 35.3451 143.204 34.3998C143.204 33.1904 144.563 32.7264 145.739 32.7264C146.792 32.7264 147.285 32.9529 147.925 33.2514C147.737 34.6982 146.46 35.7232 145.075 35.7232ZM158.647 27.5029L155.899 34.2764H155.817L152.976 27.5029H150.397L154.667 36.9686L152.231 42.2357H154.729L161.308 27.5029H158.647ZM137.095 37.4998H139.492V21.8748H137.095V37.4998Z" fill="white"/>
<defs>
<linearGradient id="paint0_linear_2001_5715" x1="27.9484" y1="39.1127" x2="6.97708" y2="17.6037" gradientUnits="userSpaceOnUse">
<stop stop-color="#00A0FF"/>
<stop offset="0.0066" stop-color="#00A1FF"/>
<stop offset="0.2601" stop-color="#00BEFF"/>
<stop offset="0.5122" stop-color="#00D2FF"/>
<stop offset="0.7604" stop-color="#00DFFF"/>
<stop offset="1" stop-color="#00E3FF"/>
</linearGradient>
<linearGradient id="paint1_linear_2001_5715" x1="43.3774" y1="24.9981" x2="12.3557" y2="24.9981" gradientUnits="userSpaceOnUse">
<stop stop-color="#FFE000"/>
<stop offset="0.4087" stop-color="#FFBD00"/>
<stop offset="0.7754" stop-color="#FFA500"/>
<stop offset="1" stop-color="#FF9C00"/>
</linearGradient>
<linearGradient id="paint2_linear_2001_5715" x1="31.8295" y1="22.1298" x2="3.39076" y2="-7.03817" gradientUnits="userSpaceOnUse">
<stop stop-color="#FF3A44"/>
<stop offset="1" stop-color="#C31162"/>
</linearGradient>
<linearGradient id="paint3_linear_2001_5715" x1="9.35554" y1="49.7798" x2="22.0547" y2="36.7551" gradientUnits="userSpaceOnUse">
<stop stop-color="#32A071"/>
<stop offset="0.0685" stop-color="#2DA771"/>
<stop offset="0.4762" stop-color="#15CF74"/>
<stop offset="0.8009" stop-color="#06E775"/>
<stop offset="1" stop-color="#00F076"/>
</linearGradient>
</defs>
</svg>
