<svg width="180" height="40" viewBox="0 0 180 40" fill="none" xmlns="http://www.w3.org/2000/svg">
<rect width="40" height="40" rx="20" fill="#5937E0"/>
<path d="M30.0014 24.9201V27.9201C30.0025 28.1986 29.9455 28.4743 29.8339 28.7294C29.7223 28.9846 29.5587 29.2137 29.3535 29.402C29.1483 29.5902 28.906 29.7336 28.6421 29.8228C28.3783 29.912 28.0988 29.9452 27.8214 29.9201C24.7442 29.5857 21.7884 28.5342 19.1914 26.8501C16.7752 25.3148 14.7267 23.2663 13.1914 20.8501C11.5014 18.2413 10.4496 15.2711 10.1214 12.1801C10.0964 11.9036 10.1293 11.6249 10.2179 11.3617C10.3065 11.0986 10.449 10.8568 10.6362 10.6517C10.8234 10.4466 11.0512 10.2828 11.3052 10.1706C11.5592 10.0584 11.8337 10.0004 12.1114 10.0001H15.1114C15.5967 9.99532 16.0672 10.1672 16.4352 10.4836C16.8031 10.8001 17.0435 11.2395 17.1114 11.7201C17.238 12.6802 17.4728 13.6228 17.8114 14.5301C17.9459 14.888 17.9751 15.277 17.8953 15.651C17.8155 16.0249 17.6303 16.3682 17.3614 16.6401L16.0914 17.9101C17.515 20.4136 19.5879 22.4865 22.0914 23.9101L23.3614 22.6401C23.6333 22.3712 23.9766 22.1859 24.3505 22.1062C24.7245 22.0264 25.1135 22.0556 25.4714 22.1901C26.3787 22.5286 27.3213 22.7635 28.2814 22.8901C28.7672 22.9586 29.2108 23.2033 29.5279 23.5776C29.8451 23.9519 30.0136 24.4297 30.0014 24.9201Z" fill="white"/>
<path d="M62.016 3.44V14H60.432L56.016 6.928L54.896 4.944H54.88L54.944 6.544V14H53.728V3.44H55.312L59.712 10.48L60.848 12.512H60.864L60.8 10.896V3.44H62.016ZM68.457 14.16C67.6997 14.16 67.0223 13.9947 66.425 13.664C65.8383 13.3333 65.3797 12.8587 65.049 12.24C64.7183 11.6107 64.553 10.864 64.553 10C64.553 9.136 64.7183 8.39467 65.049 7.776C65.3797 7.14667 65.833 6.66667 66.409 6.336C66.985 6.00533 67.641 5.84 68.377 5.84C69.1237 5.84 69.7583 6 70.281 6.32C70.8143 6.64 71.2197 7.07733 71.497 7.632C71.7743 8.176 71.913 8.78933 71.913 9.472C71.913 9.65333 71.9077 9.81867 71.897 9.968C71.8863 10.1173 71.8703 10.2507 71.849 10.368H65.385V9.232H71.289L70.633 9.36C70.633 8.592 70.4197 8 69.993 7.584C69.577 7.168 69.0277 6.96 68.345 6.96C67.8223 6.96 67.369 7.08267 66.985 7.328C66.6117 7.56267 66.3183 7.90933 66.105 8.368C65.9023 8.816 65.801 9.36 65.801 10C65.801 10.6293 65.9077 11.1733 66.121 11.632C66.3343 12.0907 66.633 12.4427 67.017 12.688C67.4117 12.9227 67.881 13.04 68.425 13.04C69.0117 13.04 69.4863 12.928 69.849 12.704C70.2223 12.48 70.521 12.176 70.745 11.792L71.753 12.384C71.5503 12.7467 71.289 13.0613 70.969 13.328C70.6597 13.5947 70.2917 13.8027 69.865 13.952C69.449 14.0907 68.9797 14.16 68.457 14.16ZM77.6914 14.16C76.934 14.16 76.2567 13.9947 75.6594 13.664C75.0727 13.3333 74.614 12.8587 74.2834 12.24C73.9527 11.6107 73.7874 10.864 73.7874 10C73.7874 9.136 73.9527 8.39467 74.2834 7.776C74.614 7.14667 75.0674 6.66667 75.6434 6.336C76.2194 6.00533 76.8754 5.84 77.6114 5.84C78.358 5.84 78.9927 6 79.5154 6.32C80.0487 6.64 80.454 7.07733 80.7314 7.632C81.0087 8.176 81.1474 8.78933 81.1474 9.472C81.1474 9.65333 81.142 9.81867 81.1314 9.968C81.1207 10.1173 81.1047 10.2507 81.0834 10.368H74.6194V9.232H80.5234L79.8674 9.36C79.8674 8.592 79.654 8 79.2274 7.584C78.8114 7.168 78.262 6.96 77.5794 6.96C77.0567 6.96 76.6034 7.08267 76.2194 7.328C75.846 7.56267 75.5527 7.90933 75.3394 8.368C75.1367 8.816 75.0354 9.36 75.0354 10C75.0354 10.6293 75.142 11.1733 75.3554 11.632C75.5687 12.0907 75.8674 12.4427 76.2514 12.688C76.646 12.9227 77.1154 13.04 77.6594 13.04C78.246 13.04 78.7207 12.928 79.0834 12.704C79.4567 12.48 79.7554 12.176 79.9794 11.792L80.9874 12.384C80.7847 12.7467 80.5234 13.0613 80.2034 13.328C79.894 13.5947 79.526 13.8027 79.0994 13.952C78.6834 14.0907 78.214 14.16 77.6914 14.16ZM86.7018 14.16C86.0404 14.16 85.4324 13.9947 84.8778 13.664C84.3231 13.3333 83.8804 12.8587 83.5498 12.24C83.2191 11.6107 83.0538 10.864 83.0538 10C83.0538 9.11467 83.2298 8.36267 83.5818 7.744C83.9338 7.12533 84.3978 6.656 84.9738 6.336C85.5498 6.00533 86.1684 5.84 86.8298 5.84C87.4911 5.84 88.0618 6.01067 88.5418 6.352C89.0324 6.69333 89.3578 7.14667 89.5178 7.712L89.3578 7.824V2.32H90.6378V14H89.5178L89.4058 12.064L89.5818 11.968C89.5071 12.4373 89.3258 12.8373 89.0378 13.168C88.7604 13.488 88.4138 13.7333 87.9978 13.904C87.5924 14.0747 87.1604 14.16 86.7018 14.16ZM86.8298 13.04C87.3418 13.04 87.7844 12.912 88.1578 12.656C88.5418 12.4 88.8351 12.0373 89.0378 11.568C89.2511 11.088 89.3578 10.528 89.3578 9.888C89.3578 9.28 89.2511 8.75733 89.0378 8.32C88.8351 7.88267 88.5471 7.54667 88.1738 7.312C87.8111 7.07733 87.3844 6.96 86.8938 6.96C86.0831 6.96 85.4538 7.23733 85.0058 7.792C84.5578 8.34667 84.3338 9.08267 84.3338 10C84.3338 10.9173 84.5524 11.6533 84.9898 12.208C85.4271 12.7627 86.0404 13.04 86.8298 13.04ZM99.0661 14V2.32H100.346V7.2C100.623 6.72 100.991 6.37333 101.45 6.16C101.909 5.94667 102.41 5.84 102.954 5.84C103.53 5.84 104.053 5.952 104.522 6.176C104.991 6.38933 105.365 6.72 105.642 7.168C105.93 7.616 106.074 8.18667 106.074 8.88V14H104.794V9.328C104.794 8.44267 104.602 7.82933 104.218 7.488C103.845 7.136 103.381 6.96 102.826 6.96C102.442 6.96 102.058 7.05067 101.674 7.232C101.29 7.41333 100.97 7.712 100.714 8.128C100.469 8.53333 100.346 9.07733 100.346 9.76V14H99.0661ZM112.316 14.16C111.559 14.16 110.882 13.9947 110.284 13.664C109.698 13.3333 109.239 12.8587 108.908 12.24C108.578 11.6107 108.412 10.864 108.412 10C108.412 9.136 108.578 8.39467 108.908 7.776C109.239 7.14667 109.692 6.66667 110.268 6.336C110.844 6.00533 111.5 5.84 112.236 5.84C112.983 5.84 113.618 6 114.14 6.32C114.674 6.64 115.079 7.07733 115.356 7.632C115.634 8.176 115.772 8.78933 115.772 9.472C115.772 9.65333 115.767 9.81867 115.756 9.968C115.746 10.1173 115.73 10.2507 115.708 10.368H109.244V9.232H115.148L114.492 9.36C114.492 8.592 114.279 8 113.852 7.584C113.436 7.168 112.887 6.96 112.204 6.96C111.682 6.96 111.228 7.08267 110.844 7.328C110.471 7.56267 110.178 7.90933 109.964 8.368C109.762 8.816 109.66 9.36 109.66 10C109.66 10.6293 109.767 11.1733 109.98 11.632C110.194 12.0907 110.492 12.4427 110.876 12.688C111.271 12.9227 111.74 13.04 112.284 13.04C112.871 13.04 113.346 12.928 113.708 12.704C114.082 12.48 114.38 12.176 114.604 11.792L115.612 12.384C115.41 12.7467 115.148 13.0613 114.828 13.328C114.519 13.5947 114.151 13.8027 113.724 13.952C113.308 14.0907 112.839 14.16 112.316 14.16ZM119.423 2.32V11.968C119.423 12.3733 119.497 12.656 119.647 12.816C119.796 12.9653 120.036 13.04 120.367 13.04C120.58 13.04 120.756 13.024 120.895 12.992C121.033 12.96 121.22 12.9013 121.455 12.816L121.247 13.936C121.076 14.0107 120.889 14.064 120.687 14.096C120.484 14.1387 120.276 14.16 120.063 14.16C119.412 14.16 118.927 13.984 118.607 13.632C118.297 13.28 118.143 12.7413 118.143 12.016V2.32H119.423ZM123.097 17.36V6H124.217L124.329 7.952L124.153 7.728C124.292 7.35467 124.5 7.02933 124.777 6.752C125.055 6.464 125.391 6.24 125.785 6.08C126.18 5.92 126.607 5.84 127.065 5.84C127.716 5.84 128.313 6.00533 128.857 6.336C129.412 6.66667 129.855 7.14133 130.185 7.76C130.516 8.37867 130.681 9.12533 130.681 10C130.681 10.864 130.511 11.6107 130.169 12.24C129.839 12.8587 129.396 13.3333 128.841 13.664C128.287 13.9947 127.679 14.16 127.017 14.16C126.356 14.16 125.775 14 125.273 13.68C124.783 13.3493 124.431 12.9333 124.217 12.432L124.377 12.192V17.36H123.097ZM126.889 13.04C127.679 13.04 128.292 12.7627 128.729 12.208C129.177 11.6533 129.401 10.9173 129.401 10C129.401 9.08267 129.183 8.34667 128.745 7.792C128.319 7.23733 127.716 6.96 126.937 6.96C126.425 6.96 125.977 7.088 125.593 7.344C125.209 7.58933 124.911 7.94133 124.697 8.4C124.484 8.848 124.377 9.38133 124.377 10C124.377 10.608 124.479 11.1413 124.681 11.6C124.895 12.0587 125.188 12.416 125.561 12.672C125.945 12.9173 126.388 13.04 126.889 13.04ZM135.602 3.28C136.306 3.28 136.92 3.392 137.442 3.616C137.965 3.84 138.37 4.16 138.658 4.576C138.957 4.992 139.106 5.488 139.106 6.064C139.106 6.68267 138.968 7.2 138.69 7.616C138.424 8.02133 138.061 8.33067 137.602 8.544C137.154 8.75733 136.653 8.896 136.098 8.96V10.672H134.77V8.272C135.549 8.15467 136.152 8.01067 136.578 7.84C137.016 7.66933 137.32 7.456 137.49 7.2C137.672 6.944 137.762 6.62933 137.762 6.256C137.762 5.88267 137.677 5.56267 137.506 5.296C137.346 5.02933 137.101 4.82667 136.77 4.688C136.44 4.54933 136.018 4.48 135.506 4.48C134.802 4.48 134.226 4.67733 133.778 5.072C133.341 5.456 133.08 5.984 132.994 6.656L131.858 6C131.976 5.456 132.2 4.98133 132.53 4.576C132.872 4.16 133.298 3.84 133.81 3.616C134.333 3.392 134.93 3.28 135.602 3.28ZM135.41 12.08C135.72 12.08 135.97 12.176 136.162 12.368C136.354 12.56 136.45 12.8107 136.45 13.12C136.45 13.4293 136.354 13.68 136.162 13.872C135.97 14.064 135.72 14.16 135.41 14.16C135.101 14.16 134.85 14.064 134.658 13.872C134.466 13.68 134.37 13.4293 134.37 13.12C134.37 12.8107 134.466 12.56 134.658 12.368C134.85 12.176 135.101 12.08 135.41 12.08Z" fill="black"/>
<path d="M57.744 27.72V35.992H55.936V27.72H57.744ZM60.8 31.016V32.68H52.864V31.016H60.8ZM66.3602 26.28C67.2989 26.28 68.0883 26.4987 68.7283 26.936C69.3683 27.3627 69.8483 27.9813 70.1683 28.792C70.4989 29.592 70.6643 30.5573 70.6643 31.688C70.6643 32.936 70.4883 33.9653 70.1363 34.776C69.7843 35.576 69.2829 36.1733 68.6323 36.568C67.9923 36.9627 67.2403 37.16 66.3763 37.16C65.4696 37.16 64.6856 36.968 64.0243 36.584C63.3736 36.2 62.8829 35.6133 62.5523 34.824L64.5843 33.96C64.7016 34.3973 64.9043 34.7493 65.1923 35.016C65.4909 35.272 65.9016 35.4 66.4243 35.4C66.8403 35.4 67.1923 35.32 67.4803 35.16C67.7683 34.9893 67.9976 34.7493 68.1683 34.44C68.3496 34.1307 68.4776 33.752 68.5523 33.304C68.6376 32.856 68.6803 32.3547 68.6803 31.8C68.6803 31.7573 68.6803 31.72 68.6803 31.688C68.6803 31.656 68.6803 31.6187 68.6803 31.576H68.6163C68.4989 31.9493 68.2963 32.2587 68.0083 32.504C67.7309 32.7387 67.4109 32.9147 67.0483 33.032C66.6856 33.1387 66.3123 33.192 65.9283 33.192C65.2563 33.192 64.6589 33.0587 64.1363 32.792C63.6243 32.5147 63.2189 32.1307 62.9203 31.64C62.6216 31.1387 62.4723 30.5573 62.4723 29.896C62.4723 29.1493 62.6323 28.5093 62.9523 27.976C63.2723 27.432 63.7203 27.016 64.2963 26.728C64.8829 26.4293 65.5709 26.28 66.3602 26.28ZM66.3763 28.072C65.8109 28.072 65.3683 28.232 65.0483 28.552C64.7283 28.8613 64.5683 29.2987 64.5683 29.864C64.5683 30.3653 64.7336 30.76 65.0643 31.048C65.3949 31.3253 65.8323 31.464 66.3763 31.464C66.7283 31.464 67.0376 31.3947 67.3043 31.256C67.5816 31.1173 67.7949 30.92 67.9443 30.664C68.0936 30.408 68.1683 30.1147 68.1683 29.784C68.1683 29.432 68.0936 29.128 67.9443 28.872C67.7949 28.616 67.5816 28.4187 67.3043 28.28C67.0376 28.1413 66.7283 28.072 66.3763 28.072ZM76.2352 26.28C77.1739 26.28 77.9633 26.4987 78.6033 26.936C79.2433 27.3627 79.7233 27.9813 80.0433 28.792C80.3739 29.592 80.5393 30.5573 80.5393 31.688C80.5393 32.936 80.3633 33.9653 80.0113 34.776C79.6593 35.576 79.1579 36.1733 78.5073 36.568C77.8673 36.9627 77.1153 37.16 76.2513 37.16C75.3446 37.16 74.5606 36.968 73.8993 36.584C73.2486 36.2 72.7579 35.6133 72.4273 34.824L74.4593 33.96C74.5766 34.3973 74.7793 34.7493 75.0673 35.016C75.3659 35.272 75.7766 35.4 76.2993 35.4C76.7153 35.4 77.0673 35.32 77.3553 35.16C77.6433 34.9893 77.8726 34.7493 78.0433 34.44C78.2246 34.1307 78.3526 33.752 78.4273 33.304C78.5126 32.856 78.5553 32.3547 78.5553 31.8C78.5553 31.7573 78.5553 31.72 78.5553 31.688C78.5553 31.656 78.5553 31.6187 78.5553 31.576H78.4913C78.3739 31.9493 78.1713 32.2587 77.8833 32.504C77.6059 32.7387 77.2859 32.9147 76.9233 33.032C76.5606 33.1387 76.1873 33.192 75.8033 33.192C75.1313 33.192 74.5339 33.0587 74.0113 32.792C73.4993 32.5147 73.0939 32.1307 72.7953 31.64C72.4966 31.1387 72.3473 30.5573 72.3473 29.896C72.3473 29.1493 72.5073 28.5093 72.8273 27.976C73.1473 27.432 73.5953 27.016 74.1713 26.728C74.7579 26.4293 75.4459 26.28 76.2352 26.28ZM76.2513 28.072C75.6859 28.072 75.2433 28.232 74.9233 28.552C74.6033 28.8613 74.4433 29.2987 74.4433 29.864C74.4433 30.3653 74.6086 30.76 74.9393 31.048C75.2699 31.3253 75.7073 31.464 76.2513 31.464C76.6033 31.464 76.9126 31.3947 77.1793 31.256C77.4566 31.1173 77.6699 30.92 77.8193 30.664C77.9686 30.408 78.0433 30.1147 78.0433 29.784C78.0433 29.432 77.9686 29.128 77.8193 28.872C77.6699 28.616 77.4566 28.4187 77.1793 28.28C76.9126 28.1413 76.6033 28.072 76.2513 28.072ZM86.7663 26.28C87.3316 26.28 87.8436 26.36 88.3023 26.52C88.7609 26.6693 89.1609 26.9147 89.5023 27.256C89.8543 27.5867 90.1263 28.0293 90.3183 28.584L88.4623 29.448C88.3343 29.032 88.1209 28.7067 87.8223 28.472C87.5343 28.2267 87.1343 28.104 86.6223 28.104C86.2596 28.104 85.9343 28.1893 85.6463 28.36C85.3689 28.5307 85.1289 28.776 84.9263 29.096C84.7236 29.416 84.5689 29.8 84.4623 30.248C84.3556 30.6853 84.3023 31.1707 84.3023 31.704C84.3023 31.736 84.3023 31.7733 84.3023 31.816C84.3023 31.848 84.3023 31.9013 84.3023 31.976L84.3503 32.04C84.4676 31.6667 84.6703 31.3573 84.9583 31.112C85.2569 30.8667 85.5876 30.6853 85.9503 30.568C86.3236 30.4507 86.6916 30.392 87.0543 30.392C87.7263 30.392 88.3183 30.5253 88.8303 30.792C89.3529 31.048 89.7583 31.4213 90.0463 31.912C90.3449 32.4027 90.4943 32.9893 90.4943 33.672C90.4943 34.376 90.3343 34.9947 90.0143 35.528C89.7049 36.0507 89.2623 36.456 88.6863 36.744C88.1209 37.0213 87.4436 37.16 86.6543 37.16C85.7583 37.16 84.9796 36.9467 84.3183 36.52C83.6676 36.0933 83.1609 35.48 82.7983 34.68C82.4463 33.88 82.2703 32.9147 82.2703 31.784C82.2703 30.5573 82.4676 29.5387 82.8623 28.728C83.2569 27.9067 83.7956 27.2933 84.4783 26.888C85.1609 26.4827 85.9236 26.28 86.7663 26.28ZM86.6223 32.008C86.2703 32.008 85.9609 32.0827 85.6943 32.232C85.4276 32.3707 85.2143 32.568 85.0543 32.824C84.8943 33.0693 84.8143 33.3573 84.8143 33.688C84.8143 34.0187 84.8943 34.312 85.0543 34.568C85.2249 34.824 85.4436 35.0267 85.7103 35.176C85.9876 35.3253 86.2916 35.4 86.6223 35.4C87.1876 35.4 87.6249 35.2507 87.9343 34.952C88.2543 34.6533 88.4143 34.232 88.4143 33.688C88.4143 33.3467 88.3449 33.048 88.2063 32.792C88.0676 32.536 87.8649 32.344 87.5983 32.216C87.3316 32.0773 87.0063 32.008 86.6223 32.008ZM97.1494 37V35.512C98.1094 34.8613 98.92 34.2747 99.5814 33.752C100.253 33.2187 100.792 32.728 101.197 32.28C101.613 31.8213 101.912 31.3893 102.093 30.984C102.285 30.5787 102.381 30.1733 102.381 29.768C102.381 29.2773 102.232 28.8773 101.933 28.568C101.635 28.248 101.213 28.088 100.669 28.088C100.072 28.088 99.6027 28.2907 99.2614 28.696C98.9307 29.1013 98.7494 29.6773 98.7174 30.424L96.8134 29.704C96.8667 28.9787 97.0587 28.3653 97.3894 27.864C97.7307 27.352 98.1894 26.9627 98.7654 26.696C99.352 26.4187 100.024 26.28 100.781 26.28C101.432 26.28 101.992 26.3707 102.461 26.552C102.941 26.7333 103.336 26.984 103.645 27.304C103.965 27.6133 104.205 27.9707 104.365 28.376C104.525 28.7813 104.605 29.2027 104.605 29.64C104.605 30.3227 104.435 30.968 104.093 31.576C103.763 32.184 103.251 32.7867 102.557 33.384C101.864 33.9813 100.984 34.6107 99.9174 35.272V35.288C100.077 35.2773 100.269 35.2667 100.493 35.256C100.728 35.2453 100.968 35.24 101.213 35.24C101.459 35.2293 101.672 35.224 101.853 35.224H104.765V37H97.1494ZM111.122 37V34.52H105.97V33.08C106.023 32.9733 106.098 32.8453 106.194 32.696C106.3 32.536 106.418 32.3547 106.546 32.152L110.482 26.44H113.122V32.92H114.834V34.52H113.122V37H111.122ZM107.858 32.92H111.138V29.432C111.138 29.208 111.143 28.968 111.154 28.712C111.164 28.456 111.175 28.2053 111.186 27.96H111.154C111.036 28.1947 110.892 28.4507 110.722 28.728C110.562 28.9947 110.412 29.2347 110.274 29.448L108.066 32.616C108.034 32.6693 107.996 32.7227 107.954 32.776C107.922 32.8187 107.89 32.8667 107.858 32.92ZM115.154 26.44H123.522V28.12C122.636 29.0053 121.932 29.9173 121.41 30.856C120.887 31.7947 120.508 32.7707 120.274 33.784C120.05 34.7973 119.938 35.8693 119.938 37H117.746C117.746 35.8267 117.89 34.7013 118.178 33.624C118.476 32.536 118.93 31.5013 119.538 30.52C120.156 29.528 120.94 28.5787 121.89 27.672L122.338 28.248H115.154V26.44ZM130.148 31.816V33.704H124.5V31.816H130.148ZM133.996 37V30.312C133.996 30.0667 133.996 29.816 133.996 29.56C134.006 29.2933 134.017 29.0213 134.028 28.744C133.665 29.0747 133.26 29.3627 132.812 29.608C132.364 29.8533 131.905 30.024 131.436 30.12L131.148 28.264C131.393 28.2427 131.665 28.1733 131.964 28.056C132.273 27.928 132.582 27.7787 132.892 27.608C133.212 27.4267 133.5 27.24 133.756 27.048C134.022 26.8453 134.225 26.6427 134.364 26.44H136.156V37H133.996ZM142.86 26.28C143.425 26.28 143.937 26.36 144.396 26.52C144.855 26.6693 145.255 26.9147 145.596 27.256C145.948 27.5867 146.22 28.0293 146.412 28.584L144.556 29.448C144.428 29.032 144.215 28.7067 143.916 28.472C143.628 28.2267 143.228 28.104 142.716 28.104C142.353 28.104 142.028 28.1893 141.74 28.36C141.463 28.5307 141.223 28.776 141.02 29.096C140.817 29.416 140.663 29.8 140.556 30.248C140.449 30.6853 140.396 31.1707 140.396 31.704C140.396 31.736 140.396 31.7733 140.396 31.816C140.396 31.848 140.396 31.9013 140.396 31.976L140.444 32.04C140.561 31.6667 140.764 31.3573 141.052 31.112C141.351 30.8667 141.681 30.6853 142.044 30.568C142.417 30.4507 142.785 30.392 143.148 30.392C143.82 30.392 144.412 30.5253 144.924 30.792C145.447 31.048 145.852 31.4213 146.14 31.912C146.439 32.4027 146.588 32.9893 146.588 33.672C146.588 34.376 146.428 34.9947 146.108 35.528C145.799 36.0507 145.356 36.456 144.78 36.744C144.215 37.0213 143.537 37.16 142.748 37.16C141.852 37.16 141.073 36.9467 140.412 36.52C139.761 36.0933 139.255 35.48 138.892 34.68C138.54 33.88 138.364 32.9147 138.364 31.784C138.364 30.5573 138.561 29.5387 138.956 28.728C139.351 27.9067 139.889 27.2933 140.572 26.888C141.255 26.4827 142.017 26.28 142.86 26.28ZM142.716 32.008C142.364 32.008 142.055 32.0827 141.788 32.232C141.521 32.3707 141.308 32.568 141.148 32.824C140.988 33.0693 140.908 33.3573 140.908 33.688C140.908 34.0187 140.988 34.312 141.148 34.568C141.319 34.824 141.537 35.0267 141.804 35.176C142.081 35.3253 142.385 35.4 142.716 35.4C143.281 35.4 143.719 35.2507 144.028 34.952C144.348 34.6533 144.508 34.232 144.508 33.688C144.508 33.3467 144.439 33.048 144.3 32.792C144.161 32.536 143.959 32.344 143.692 32.216C143.425 32.0773 143.1 32.008 142.716 32.008ZM152.289 26.312C153.046 26.312 153.702 26.4293 154.257 26.664C154.822 26.888 155.254 27.2133 155.553 27.64C155.862 28.056 156.017 28.5627 156.017 29.16C156.017 29.7147 155.878 30.1947 155.601 30.6C155.334 31.0053 154.945 31.3147 154.433 31.528V31.544C155.051 31.768 155.537 32.0933 155.889 32.52C156.241 32.9467 156.417 33.4853 156.417 34.136C156.417 34.7547 156.246 35.288 155.905 35.736C155.574 36.184 155.099 36.536 154.481 36.792C153.873 37.0373 153.142 37.16 152.289 37.16C151.446 37.16 150.715 37.0373 150.097 36.792C149.489 36.536 149.014 36.184 148.673 35.736C148.342 35.288 148.177 34.7547 148.177 34.136C148.177 33.496 148.353 32.9627 148.705 32.536C149.057 32.0987 149.547 31.768 150.177 31.544V31.528C149.665 31.3253 149.27 31.0213 148.993 30.616C148.715 30.2 148.577 29.7147 148.577 29.16C148.577 28.5627 148.726 28.056 149.025 27.64C149.334 27.2133 149.771 26.888 150.337 26.664C150.902 26.4293 151.553 26.312 152.289 26.312ZM152.305 28.008C151.803 28.008 151.403 28.1307 151.105 28.376C150.806 28.6213 150.657 28.9627 150.657 29.4C150.657 29.8373 150.806 30.1787 151.105 30.424C151.403 30.6693 151.803 30.792 152.305 30.792C152.795 30.792 153.185 30.6693 153.473 30.424C153.771 30.1787 153.921 29.8373 153.921 29.4C153.921 28.9627 153.777 28.6213 153.489 28.376C153.201 28.1307 152.806 28.008 152.305 28.008ZM152.305 35.448C152.71 35.448 153.057 35.3893 153.345 35.272C153.633 35.1547 153.851 34.9787 154.001 34.744C154.161 34.5093 154.241 34.232 154.241 33.912C154.241 33.592 154.161 33.3147 154.001 33.08C153.851 32.8453 153.627 32.6693 153.329 32.552C153.041 32.424 152.699 32.36 152.305 32.36C151.91 32.36 151.563 32.424 151.265 32.552C150.966 32.6693 150.737 32.8453 150.577 33.08C150.417 33.3147 150.337 33.592 150.337 33.912C150.337 34.232 150.417 34.5093 150.577 34.744C150.737 34.9787 150.961 35.1547 151.249 35.272C151.547 35.3893 151.899 35.448 152.305 35.448ZM162.369 37.16C161.015 37.16 159.969 36.7013 159.233 35.784C158.508 34.8667 158.145 33.512 158.145 31.72C158.145 29.928 158.508 28.5733 159.233 27.656C159.969 26.7387 161.015 26.28 162.369 26.28C163.724 26.28 164.764 26.7387 165.489 27.656C166.225 28.5733 166.593 29.928 166.593 31.72C166.593 33.512 166.225 34.8667 165.489 35.784C164.764 36.7013 163.724 37.16 162.369 37.16ZM162.369 35.384C162.828 35.384 163.201 35.256 163.489 35C163.788 34.7333 164.012 34.3333 164.161 33.8C164.311 33.256 164.385 32.5627 164.385 31.72C164.385 30.8773 164.311 30.1893 164.161 29.656C164.012 29.112 163.788 28.712 163.489 28.456C163.201 28.1893 162.828 28.056 162.369 28.056C161.911 28.056 161.532 28.1893 161.233 28.456C160.935 28.712 160.711 29.112 160.561 29.656C160.423 30.1893 160.353 30.8773 160.353 31.72C160.353 32.5627 160.423 33.256 160.561 33.8C160.711 34.3333 160.935 34.7333 161.233 35C161.532 35.256 161.911 35.384 162.369 35.384Z" fill="black"/>
</svg>
