<svg width="116" height="40" viewBox="0 0 116 40" fill="none" xmlns="http://www.w3.org/2000/svg">
<path d="M10.016 3.44V14H8.432L4.016 6.928L2.896 4.944H2.88L2.944 6.544V14H1.728V3.44H3.312L7.712 10.48L8.848 12.512H8.864L8.8 10.896V3.44H10.016ZM16.457 14.16C15.6997 14.16 15.0223 13.9947 14.425 13.664C13.8383 13.3333 13.3797 12.8587 13.049 12.24C12.7183 11.6107 12.553 10.864 12.553 10C12.553 9.136 12.7183 8.39467 13.049 7.776C13.3797 7.14667 13.833 6.66667 14.409 6.336C14.985 6.00533 15.641 5.84 16.377 5.84C17.1237 5.84 17.7583 6 18.281 6.32C18.8143 6.64 19.2197 7.07733 19.497 7.632C19.7743 8.176 19.913 8.78933 19.913 9.472C19.913 9.65333 19.9077 9.81867 19.897 9.968C19.8863 10.1173 19.8703 10.2507 19.849 10.368H13.385V9.232H19.289L18.633 9.36C18.633 8.592 18.4197 8 17.993 7.584C17.577 7.168 17.0277 6.96 16.345 6.96C15.8223 6.96 15.369 7.08267 14.985 7.328C14.6117 7.56267 14.3183 7.90933 14.105 8.368C13.9023 8.816 13.801 9.36 13.801 10C13.801 10.6293 13.9077 11.1733 14.121 11.632C14.3343 12.0907 14.633 12.4427 15.017 12.688C15.4117 12.9227 15.881 13.04 16.425 13.04C17.0117 13.04 17.4863 12.928 17.849 12.704C18.2223 12.48 18.521 12.176 18.745 11.792L19.753 12.384C19.5503 12.7467 19.289 13.0613 18.969 13.328C18.6597 13.5947 18.2917 13.8027 17.865 13.952C17.449 14.0907 16.9797 14.16 16.457 14.16ZM25.6914 14.16C24.934 14.16 24.2567 13.9947 23.6594 13.664C23.0727 13.3333 22.614 12.8587 22.2834 12.24C21.9527 11.6107 21.7874 10.864 21.7874 10C21.7874 9.136 21.9527 8.39467 22.2834 7.776C22.614 7.14667 23.0674 6.66667 23.6434 6.336C24.2194 6.00533 24.8754 5.84 25.6114 5.84C26.358 5.84 26.9927 6 27.5154 6.32C28.0487 6.64 28.454 7.07733 28.7314 7.632C29.0087 8.176 29.1474 8.78933 29.1474 9.472C29.1474 9.65333 29.142 9.81867 29.1314 9.968C29.1207 10.1173 29.1047 10.2507 29.0834 10.368H22.6194V9.232H28.5234L27.8674 9.36C27.8674 8.592 27.654 8 27.2274 7.584C26.8114 7.168 26.262 6.96 25.5794 6.96C25.0567 6.96 24.6034 7.08267 24.2194 7.328C23.846 7.56267 23.5527 7.90933 23.3394 8.368C23.1367 8.816 23.0354 9.36 23.0354 10C23.0354 10.6293 23.142 11.1733 23.3554 11.632C23.5687 12.0907 23.8674 12.4427 24.2514 12.688C24.646 12.9227 25.1154 13.04 25.6594 13.04C26.246 13.04 26.7207 12.928 27.0834 12.704C27.4567 12.48 27.7554 12.176 27.9794 11.792L28.9874 12.384C28.7847 12.7467 28.5234 13.0613 28.2034 13.328C27.894 13.5947 27.526 13.8027 27.0994 13.952C26.6834 14.0907 26.214 14.16 25.6914 14.16ZM34.7018 14.16C34.0404 14.16 33.4324 13.9947 32.8778 13.664C32.3231 13.3333 31.8804 12.8587 31.5498 12.24C31.2191 11.6107 31.0538 10.864 31.0538 10C31.0538 9.11467 31.2298 8.36267 31.5818 7.744C31.9338 7.12533 32.3978 6.656 32.9738 6.336C33.5498 6.00533 34.1684 5.84 34.8298 5.84C35.4911 5.84 36.0618 6.01067 36.5418 6.352C37.0324 6.69333 37.3578 7.14667 37.5178 7.712L37.3578 7.824V2.32H38.6378V14H37.5178L37.4058 12.064L37.5818 11.968C37.5071 12.4373 37.3258 12.8373 37.0378 13.168C36.7604 13.488 36.4138 13.7333 35.9978 13.904C35.5924 14.0747 35.1604 14.16 34.7018 14.16ZM34.8298 13.04C35.3418 13.04 35.7844 12.912 36.1578 12.656C36.5418 12.4 36.8351 12.0373 37.0378 11.568C37.2511 11.088 37.3578 10.528 37.3578 9.888C37.3578 9.28 37.2511 8.75733 37.0378 8.32C36.8351 7.88267 36.5471 7.54667 36.1738 7.312C35.8111 7.07733 35.3844 6.96 34.8938 6.96C34.0831 6.96 33.4538 7.23733 33.0058 7.792C32.5578 8.34667 32.3338 9.08267 32.3338 10C32.3338 10.9173 32.5524 11.6533 32.9898 12.208C33.4271 12.7627 34.0404 13.04 34.8298 13.04ZM47.0661 14V2.32H48.3461V7.2C48.6235 6.72 48.9915 6.37333 49.4501 6.16C49.9088 5.94667 50.4101 5.84 50.9541 5.84C51.5301 5.84 52.0528 5.952 52.5221 6.176C52.9915 6.38933 53.3648 6.72 53.6421 7.168C53.9301 7.616 54.0741 8.18667 54.0741 8.88V14H52.7941V9.328C52.7941 8.44267 52.6021 7.82933 52.2181 7.488C51.8448 7.136 51.3808 6.96 50.8261 6.96C50.4421 6.96 50.0581 7.05067 49.6741 7.232C49.2901 7.41333 48.9701 7.712 48.7141 8.128C48.4688 8.53333 48.3461 9.07733 48.3461 9.76V14H47.0661ZM60.3164 14.16C59.559 14.16 58.8817 13.9947 58.2844 13.664C57.6977 13.3333 57.239 12.8587 56.9084 12.24C56.5777 11.6107 56.4124 10.864 56.4124 10C56.4124 9.136 56.5777 8.39467 56.9084 7.776C57.239 7.14667 57.6924 6.66667 58.2684 6.336C58.8444 6.00533 59.5004 5.84 60.2364 5.84C60.983 5.84 61.6177 6 62.1404 6.32C62.6737 6.64 63.079 7.07733 63.3564 7.632C63.6337 8.176 63.7724 8.78933 63.7724 9.472C63.7724 9.65333 63.767 9.81867 63.7564 9.968C63.7457 10.1173 63.7297 10.2507 63.7084 10.368H57.2444V9.232H63.1484L62.4924 9.36C62.4924 8.592 62.279 8 61.8524 7.584C61.4364 7.168 60.887 6.96 60.2044 6.96C59.6817 6.96 59.2284 7.08267 58.8444 7.328C58.471 7.56267 58.1777 7.90933 57.9644 8.368C57.7617 8.816 57.6604 9.36 57.6604 10C57.6604 10.6293 57.767 11.1733 57.9804 11.632C58.1937 12.0907 58.4924 12.4427 58.8764 12.688C59.271 12.9227 59.7404 13.04 60.2844 13.04C60.871 13.04 61.3457 12.928 61.7084 12.704C62.0817 12.48 62.3804 12.176 62.6044 11.792L63.6124 12.384C63.4097 12.7467 63.1484 13.0613 62.8284 13.328C62.519 13.5947 62.151 13.8027 61.7244 13.952C61.3084 14.0907 60.839 14.16 60.3164 14.16ZM67.4228 2.32V11.968C67.4228 12.3733 67.4974 12.656 67.6468 12.816C67.7961 12.9653 68.0361 13.04 68.3668 13.04C68.5801 13.04 68.7561 13.024 68.8948 12.992C69.0334 12.96 69.2201 12.9013 69.4548 12.816L69.2468 13.936C69.0761 14.0107 68.8894 14.064 68.6868 14.096C68.4841 14.1387 68.2761 14.16 68.0628 14.16C67.4121 14.16 66.9268 13.984 66.6068 13.632C66.2974 13.28 66.1428 12.7413 66.1428 12.016V2.32H67.4228ZM71.0974 17.36V6H72.2174L72.3294 7.952L72.1534 7.728C72.292 7.35467 72.5 7.02933 72.7774 6.752C73.0547 6.464 73.3907 6.24 73.7854 6.08C74.18 5.92 74.6067 5.84 75.0654 5.84C75.716 5.84 76.3134 6.00533 76.8574 6.336C77.412 6.66667 77.8547 7.14133 78.1854 7.76C78.516 8.37867 78.6814 9.12533 78.6814 10C78.6814 10.864 78.5107 11.6107 78.1694 12.24C77.8387 12.8587 77.396 13.3333 76.8414 13.664C76.2867 13.9947 75.6787 14.16 75.0174 14.16C74.356 14.16 73.7747 14 73.2734 13.68C72.7827 13.3493 72.4307 12.9333 72.2174 12.432L72.3774 12.192V17.36H71.0974ZM74.8894 13.04C75.6787 13.04 76.292 12.7627 76.7294 12.208C77.1774 11.6533 77.4014 10.9173 77.4014 10C77.4014 9.08267 77.1827 8.34667 76.7454 7.792C76.3187 7.23733 75.716 6.96 74.9374 6.96C74.4254 6.96 73.9774 7.088 73.5934 7.344C73.2094 7.58933 72.9107 7.94133 72.6974 8.4C72.484 8.848 72.3774 9.38133 72.3774 10C72.3774 10.608 72.4787 11.1413 72.6814 11.6C72.8947 12.0587 73.188 12.416 73.5614 12.672C73.9454 12.9173 74.388 13.04 74.8894 13.04ZM83.6024 3.28C84.3064 3.28 84.9197 3.392 85.4424 3.616C85.965 3.84 86.3704 4.16 86.6584 4.576C86.957 4.992 87.1064 5.488 87.1064 6.064C87.1064 6.68267 86.9677 7.2 86.6904 7.616C86.4237 8.02133 86.061 8.33067 85.6024 8.544C85.1544 8.75733 84.653 8.896 84.0984 8.96V10.672H82.7704V8.272C83.549 8.15467 84.1517 8.01067 84.5784 7.84C85.0157 7.66933 85.3197 7.456 85.4904 7.2C85.6717 6.944 85.7624 6.62933 85.7624 6.256C85.7624 5.88267 85.677 5.56267 85.5064 5.296C85.3464 5.02933 85.101 4.82667 84.7704 4.688C84.4397 4.54933 84.0184 4.48 83.5064 4.48C82.8024 4.48 82.2264 4.67733 81.7784 5.072C81.341 5.456 81.0797 5.984 80.9944 6.656L79.8584 6C79.9757 5.456 80.1997 4.98133 80.5304 4.576C80.8717 4.16 81.2984 3.84 81.8104 3.616C82.333 3.392 82.9304 3.28 83.6024 3.28ZM83.4104 12.08C83.7197 12.08 83.9704 12.176 84.1624 12.368C84.3544 12.56 84.4504 12.8107 84.4504 13.12C84.4504 13.4293 84.3544 13.68 84.1624 13.872C83.9704 14.064 83.7197 14.16 83.4104 14.16C83.101 14.16 82.8504 14.064 82.6584 13.872C82.4664 13.68 82.3704 13.4293 82.3704 13.12C82.3704 12.8107 82.4664 12.56 82.6584 12.368C82.8504 12.176 83.101 12.08 83.4104 12.08Z" fill="black"/>
<path d="M5.744 27.72V35.992H3.936V27.72H5.744ZM8.8 31.016V32.68H0.864V31.016H8.8ZM14.3602 26.28C15.2989 26.28 16.0883 26.4987 16.7283 26.936C17.3683 27.3627 17.8483 27.9813 18.1683 28.792C18.4989 29.592 18.6643 30.5573 18.6643 31.688C18.6643 32.936 18.4883 33.9653 18.1363 34.776C17.7843 35.576 17.2829 36.1733 16.6323 36.568C15.9923 36.9627 15.2403 37.16 14.3763 37.16C13.4696 37.16 12.6856 36.968 12.0243 36.584C11.3736 36.2 10.8829 35.6133 10.5523 34.824L12.5843 33.96C12.7016 34.3973 12.9043 34.7493 13.1923 35.016C13.4909 35.272 13.9016 35.4 14.4243 35.4C14.8403 35.4 15.1923 35.32 15.4803 35.16C15.7683 34.9893 15.9976 34.7493 16.1683 34.44C16.3496 34.1307 16.4776 33.752 16.5523 33.304C16.6376 32.856 16.6803 32.3547 16.6803 31.8C16.6803 31.7573 16.6803 31.72 16.6803 31.688C16.6803 31.656 16.6803 31.6187 16.6803 31.576H16.6163C16.4989 31.9493 16.2963 32.2587 16.0083 32.504C15.7309 32.7387 15.4109 32.9147 15.0483 33.032C14.6856 33.1387 14.3123 33.192 13.9283 33.192C13.2563 33.192 12.6589 33.0587 12.1363 32.792C11.6243 32.5147 11.2189 32.1307 10.9203 31.64C10.6216 31.1387 10.4723 30.5573 10.4723 29.896C10.4723 29.1493 10.6323 28.5093 10.9523 27.976C11.2723 27.432 11.7203 27.016 12.2963 26.728C12.8829 26.4293 13.5709 26.28 14.3602 26.28ZM14.3763 28.072C13.8109 28.072 13.3683 28.232 13.0483 28.552C12.7283 28.8613 12.5683 29.2987 12.5683 29.864C12.5683 30.3653 12.7336 30.76 13.0643 31.048C13.3949 31.3253 13.8323 31.464 14.3763 31.464C14.7283 31.464 15.0376 31.3947 15.3043 31.256C15.5816 31.1173 15.7949 30.92 15.9443 30.664C16.0936 30.408 16.1683 30.1147 16.1683 29.784C16.1683 29.432 16.0936 29.128 15.9443 28.872C15.7949 28.616 15.5816 28.4187 15.3043 28.28C15.0376 28.1413 14.7283 28.072 14.3763 28.072ZM24.2352 26.28C25.1739 26.28 25.9633 26.4987 26.6033 26.936C27.2433 27.3627 27.7233 27.9813 28.0433 28.792C28.3739 29.592 28.5393 30.5573 28.5393 31.688C28.5393 32.936 28.3633 33.9653 28.0113 34.776C27.6593 35.576 27.1579 36.1733 26.5073 36.568C25.8673 36.9627 25.1153 37.16 24.2513 37.16C23.3446 37.16 22.5606 36.968 21.8993 36.584C21.2486 36.2 20.7579 35.6133 20.4273 34.824L22.4593 33.96C22.5766 34.3973 22.7793 34.7493 23.0673 35.016C23.3659 35.272 23.7766 35.4 24.2993 35.4C24.7153 35.4 25.0673 35.32 25.3553 35.16C25.6433 34.9893 25.8726 34.7493 26.0433 34.44C26.2246 34.1307 26.3526 33.752 26.4273 33.304C26.5126 32.856 26.5553 32.3547 26.5553 31.8C26.5553 31.7573 26.5553 31.72 26.5553 31.688C26.5553 31.656 26.5553 31.6187 26.5553 31.576H26.4913C26.3739 31.9493 26.1713 32.2587 25.8833 32.504C25.6059 32.7387 25.2859 32.9147 24.9233 33.032C24.5606 33.1387 24.1873 33.192 23.8033 33.192C23.1313 33.192 22.5339 33.0587 22.0113 32.792C21.4993 32.5147 21.0939 32.1307 20.7953 31.64C20.4966 31.1387 20.3473 30.5573 20.3473 29.896C20.3473 29.1493 20.5073 28.5093 20.8273 27.976C21.1473 27.432 21.5953 27.016 22.1713 26.728C22.7579 26.4293 23.4459 26.28 24.2352 26.28ZM24.2513 28.072C23.6859 28.072 23.2433 28.232 22.9233 28.552C22.6033 28.8613 22.4433 29.2987 22.4433 29.864C22.4433 30.3653 22.6086 30.76 22.9393 31.048C23.2699 31.3253 23.7073 31.464 24.2513 31.464C24.6033 31.464 24.9126 31.3947 25.1793 31.256C25.4566 31.1173 25.6699 30.92 25.8193 30.664C25.9686 30.408 26.0433 30.1147 26.0433 29.784C26.0433 29.432 25.9686 29.128 25.8193 28.872C25.6699 28.616 25.4566 28.4187 25.1793 28.28C24.9126 28.1413 24.6033 28.072 24.2513 28.072ZM34.7663 26.28C35.3316 26.28 35.8436 26.36 36.3023 26.52C36.7609 26.6693 37.1609 26.9147 37.5023 27.256C37.8543 27.5867 38.1263 28.0293 38.3183 28.584L36.4623 29.448C36.3343 29.032 36.1209 28.7067 35.8223 28.472C35.5343 28.2267 35.1343 28.104 34.6223 28.104C34.2596 28.104 33.9343 28.1893 33.6463 28.36C33.3689 28.5307 33.1289 28.776 32.9263 29.096C32.7236 29.416 32.5689 29.8 32.4623 30.248C32.3556 30.6853 32.3023 31.1707 32.3023 31.704C32.3023 31.736 32.3023 31.7733 32.3023 31.816C32.3023 31.848 32.3023 31.9013 32.3023 31.976L32.3503 32.04C32.4676 31.6667 32.6703 31.3573 32.9583 31.112C33.2569 30.8667 33.5876 30.6853 33.9503 30.568C34.3236 30.4507 34.6916 30.392 35.0543 30.392C35.7263 30.392 36.3183 30.5253 36.8303 30.792C37.3529 31.048 37.7583 31.4213 38.0463 31.912C38.3449 32.4027 38.4943 32.9893 38.4943 33.672C38.4943 34.376 38.3343 34.9947 38.0143 35.528C37.7049 36.0507 37.2623 36.456 36.6863 36.744C36.1209 37.0213 35.4436 37.16 34.6543 37.16C33.7583 37.16 32.9796 36.9467 32.3183 36.52C31.6676 36.0933 31.1609 35.48 30.7983 34.68C30.4463 33.88 30.2703 32.9147 30.2703 31.784C30.2703 30.5573 30.4676 29.5387 30.8623 28.728C31.2569 27.9067 31.7956 27.2933 32.4783 26.888C33.1609 26.4827 33.9236 26.28 34.7663 26.28ZM34.6223 32.008C34.2703 32.008 33.9609 32.0827 33.6943 32.232C33.4276 32.3707 33.2143 32.568 33.0543 32.824C32.8943 33.0693 32.8143 33.3573 32.8143 33.688C32.8143 34.0187 32.8943 34.312 33.0543 34.568C33.2249 34.824 33.4436 35.0267 33.7103 35.176C33.9876 35.3253 34.2916 35.4 34.6223 35.4C35.1876 35.4 35.6249 35.2507 35.9343 34.952C36.2543 34.6533 36.4143 34.232 36.4143 33.688C36.4143 33.3467 36.3449 33.048 36.2063 32.792C36.0676 32.536 35.8649 32.344 35.5983 32.216C35.3316 32.0773 35.0063 32.008 34.6223 32.008ZM45.1494 37V35.512C46.1094 34.8613 46.92 34.2747 47.5814 33.752C48.2534 33.2187 48.792 32.728 49.1974 32.28C49.6134 31.8213 49.912 31.3893 50.0934 30.984C50.2854 30.5787 50.3814 30.1733 50.3814 29.768C50.3814 29.2773 50.232 28.8773 49.9334 28.568C49.6347 28.248 49.2134 28.088 48.6694 28.088C48.072 28.088 47.6027 28.2907 47.2614 28.696C46.9307 29.1013 46.7494 29.6773 46.7174 30.424L44.8134 29.704C44.8667 28.9787 45.0587 28.3653 45.3894 27.864C45.7307 27.352 46.1894 26.9627 46.7654 26.696C47.352 26.4187 48.024 26.28 48.7814 26.28C49.432 26.28 49.992 26.3707 50.4614 26.552C50.9414 26.7333 51.336 26.984 51.6454 27.304C51.9654 27.6133 52.2054 27.9707 52.3654 28.376C52.5254 28.7813 52.6054 29.2027 52.6054 29.64C52.6054 30.3227 52.4347 30.968 52.0934 31.576C51.7627 32.184 51.2507 32.7867 50.5574 33.384C49.864 33.9813 48.984 34.6107 47.9174 35.272V35.288C48.0774 35.2773 48.2694 35.2667 48.4934 35.256C48.728 35.2453 48.968 35.24 49.2134 35.24C49.4587 35.2293 49.672 35.224 49.8534 35.224H52.7654V37H45.1494ZM59.1216 37V34.52H53.9696V33.08C54.023 32.9733 54.0976 32.8453 54.1936 32.696C54.3003 32.536 54.4176 32.3547 54.5456 32.152L58.4816 26.44H61.1216V32.92H62.8336V34.52H61.1216V37H59.1216ZM55.8576 32.92H59.1376V29.432C59.1376 29.208 59.143 28.968 59.1536 28.712C59.1643 28.456 59.175 28.2053 59.1856 27.96H59.1536C59.0363 28.1947 58.8923 28.4507 58.7216 28.728C58.5616 28.9947 58.4123 29.2347 58.2736 29.448L56.0656 32.616C56.0336 32.6693 55.9963 32.7227 55.9536 32.776C55.9216 32.8187 55.8896 32.8667 55.8576 32.92ZM63.1538 26.44H71.5218V28.12C70.6364 29.0053 69.9324 29.9173 69.4098 30.856C68.8871 31.7947 68.5084 32.7707 68.2738 33.784C68.0498 34.7973 67.9378 35.8693 67.9378 37H65.7458C65.7458 35.8267 65.8898 34.7013 66.1778 33.624C66.4764 32.536 66.9298 31.5013 67.5378 30.52C68.1564 29.528 68.9404 28.5787 69.8898 27.672L70.3378 28.248H63.1538V26.44ZM78.1483 31.816V33.704H72.5003V31.816H78.1483ZM81.9958 37V30.312C81.9958 30.0667 81.9958 29.816 81.9958 29.56C82.0064 29.2933 82.0171 29.0213 82.0278 28.744C81.6651 29.0747 81.2598 29.3627 80.8118 29.608C80.3638 29.8533 79.9051 30.024 79.4358 30.12L79.1478 28.264C79.3931 28.2427 79.6651 28.1733 79.9638 28.056C80.2731 27.928 80.5824 27.7787 80.8918 27.608C81.2118 27.4267 81.4998 27.24 81.7558 27.048C82.0224 26.8453 82.2251 26.6427 82.3638 26.44H84.1558V37H81.9958ZM90.86 26.28C91.4253 26.28 91.9373 26.36 92.396 26.52C92.8547 26.6693 93.2547 26.9147 93.596 27.256C93.948 27.5867 94.22 28.0293 94.412 28.584L92.556 29.448C92.428 29.032 92.2147 28.7067 91.916 28.472C91.628 28.2267 91.228 28.104 90.716 28.104C90.3533 28.104 90.028 28.1893 89.74 28.36C89.4627 28.5307 89.2227 28.776 89.02 29.096C88.8173 29.416 88.6627 29.8 88.556 30.248C88.4493 30.6853 88.396 31.1707 88.396 31.704C88.396 31.736 88.396 31.7733 88.396 31.816C88.396 31.848 88.396 31.9013 88.396 31.976L88.444 32.04C88.5613 31.6667 88.764 31.3573 89.052 31.112C89.3507 30.8667 89.6813 30.6853 90.044 30.568C90.4173 30.4507 90.7853 30.392 91.148 30.392C91.82 30.392 92.412 30.5253 92.924 30.792C93.4467 31.048 93.852 31.4213 94.14 31.912C94.4387 32.4027 94.588 32.9893 94.588 33.672C94.588 34.376 94.428 34.9947 94.108 35.528C93.7987 36.0507 93.356 36.456 92.78 36.744C92.2147 37.0213 91.5373 37.16 90.748 37.16C89.852 37.16 89.0733 36.9467 88.412 36.52C87.7613 36.0933 87.2547 35.48 86.892 34.68C86.54 33.88 86.364 32.9147 86.364 31.784C86.364 30.5573 86.5613 29.5387 86.956 28.728C87.3507 27.9067 87.8893 27.2933 88.572 26.888C89.2547 26.4827 90.0173 26.28 90.86 26.28ZM90.716 32.008C90.364 32.008 90.0547 32.0827 89.788 32.232C89.5213 32.3707 89.308 32.568 89.148 32.824C88.988 33.0693 88.908 33.3573 88.908 33.688C88.908 34.0187 88.988 34.312 89.148 34.568C89.3187 34.824 89.5373 35.0267 89.804 35.176C90.0813 35.3253 90.3853 35.4 90.716 35.4C91.2813 35.4 91.7187 35.2507 92.028 34.952C92.348 34.6533 92.508 34.232 92.508 33.688C92.508 33.3467 92.4387 33.048 92.3 32.792C92.1613 32.536 91.9587 32.344 91.692 32.216C91.4253 32.0773 91.1 32.008 90.716 32.008ZM100.289 26.312C101.046 26.312 101.702 26.4293 102.257 26.664C102.822 26.888 103.254 27.2133 103.553 27.64C103.862 28.056 104.017 28.5627 104.017 29.16C104.017 29.7147 103.878 30.1947 103.601 30.6C103.334 31.0053 102.945 31.3147 102.433 31.528V31.544C103.051 31.768 103.537 32.0933 103.889 32.52C104.241 32.9467 104.417 33.4853 104.417 34.136C104.417 34.7547 104.246 35.288 103.905 35.736C103.574 36.184 103.099 36.536 102.481 36.792C101.873 37.0373 101.142 37.16 100.289 37.16C99.4458 37.16 98.7152 37.0373 98.0965 36.792C97.4885 36.536 97.0138 36.184 96.6725 35.736C96.3418 35.288 96.1765 34.7547 96.1765 34.136C96.1765 33.496 96.3525 32.9627 96.7045 32.536C97.0565 32.0987 97.5472 31.768 98.1765 31.544V31.528C97.6645 31.3253 97.2698 31.0213 96.9925 30.616C96.7152 30.2 96.5765 29.7147 96.5765 29.16C96.5765 28.5627 96.7258 28.056 97.0245 27.64C97.3338 27.2133 97.7712 26.888 98.3365 26.664C98.9018 26.4293 99.5525 26.312 100.289 26.312ZM100.305 28.008C99.8032 28.008 99.4032 28.1307 99.1045 28.376C98.8058 28.6213 98.6565 28.9627 98.6565 29.4C98.6565 29.8373 98.8058 30.1787 99.1045 30.424C99.4032 30.6693 99.8032 30.792 100.305 30.792C100.795 30.792 101.185 30.6693 101.473 30.424C101.771 30.1787 101.921 29.8373 101.921 29.4C101.921 28.9627 101.777 28.6213 101.489 28.376C101.201 28.1307 100.806 28.008 100.305 28.008ZM100.305 35.448C100.71 35.448 101.057 35.3893 101.345 35.272C101.633 35.1547 101.851 34.9787 102.001 34.744C102.161 34.5093 102.241 34.232 102.241 33.912C102.241 33.592 102.161 33.3147 102.001 33.08C101.851 32.8453 101.627 32.6693 101.329 32.552C101.041 32.424 100.699 32.36 100.305 32.36C99.9098 32.36 99.5632 32.424 99.2645 32.552C98.9658 32.6693 98.7365 32.8453 98.5765 33.08C98.4165 33.3147 98.3365 33.592 98.3365 33.912C98.3365 34.232 98.4165 34.5093 98.5765 34.744C98.7365 34.9787 98.9605 35.1547 99.2485 35.272C99.5472 35.3893 99.8992 35.448 100.305 35.448ZM110.369 37.16C109.015 37.16 107.969 36.7013 107.233 35.784C106.508 34.8667 106.145 33.512 106.145 31.72C106.145 29.928 106.508 28.5733 107.233 27.656C107.969 26.7387 109.015 26.28 110.369 26.28C111.724 26.28 112.764 26.7387 113.489 27.656C114.225 28.5733 114.593 29.928 114.593 31.72C114.593 33.512 114.225 34.8667 113.489 35.784C112.764 36.7013 111.724 37.16 110.369 37.16ZM110.369 35.384C110.828 35.384 111.201 35.256 111.489 35C111.788 34.7333 112.012 34.3333 112.161 33.8C112.311 33.256 112.385 32.5627 112.385 31.72C112.385 30.8773 112.311 30.1893 112.161 29.656C112.012 29.112 111.788 28.712 111.489 28.456C111.201 28.1893 110.828 28.056 110.369 28.056C109.911 28.056 109.532 28.1893 109.233 28.456C108.935 28.712 108.711 29.112 108.561 29.656C108.423 30.1893 108.353 30.8773 108.353 31.72C108.353 32.5627 108.423 33.256 108.561 33.8C108.711 34.3333 108.935 34.7333 109.233 35C109.532 35.256 109.911 35.384 110.369 35.384Z" fill="black"/>
</svg>
